<svg width="22" height="22" viewBox="0 0 22 22" fill="none" xmlns="http://www.w3.org/2000/svg">
<g clip-path="url(#clip0_419_5573)">
<path d="M1.289 19.3631C1.289 19.1256 1.289 18.8975 1.289 18.6694C1.30105 17.5565 2.08839 16.7586 3.20014 16.7552C5.39093 16.7483 7.58144 16.7483 9.77166 16.7552C10.8843 16.7552 11.6733 17.5539 11.6871 18.6651C11.6871 18.894 11.6871 19.1221 11.6871 19.3295C11.9057 19.4036 12.1173 19.4475 12.3032 19.5439C12.7334 19.7668 12.9434 20.1464 12.9709 20.6206C12.9847 20.8634 12.9813 21.1078 12.9709 21.3514C12.9711 21.4358 12.9545 21.5194 12.9223 21.5974C12.8901 21.6754 12.8428 21.7463 12.7832 21.806C12.7236 21.8657 12.6528 21.9131 12.5749 21.9454C12.4969 21.9777 12.4134 21.9943 12.329 21.9943C12.2714 21.9943 12.2146 21.9943 12.1569 21.9943H0.820041C0.227168 21.9943 0.000860484 21.7706 0 21.1818V20.8169C0.000860484 19.9656 0.415612 19.494 1.289 19.3631Z" fill="#286FEB"/>
<path d="M16.6106 8.41205C16.5848 8.468 16.5667 8.51449 16.5426 8.55839C15.4601 10.538 13.8226 11.7766 11.6146 12.2517C11.5734 12.2561 11.5318 12.251 11.4929 12.2368C11.454 12.2227 11.4188 12.1998 11.39 12.17C9.93755 10.2551 8.49079 8.33571 7.04977 6.41172C7.02846 6.37614 7.01559 6.33617 7.01216 6.29484C7.00873 6.2535 7.01482 6.2119 7.02997 6.17329C8.09181 4.19364 9.73018 2.96197 11.9167 2.45329C11.9728 2.43413 12.0338 2.4349 12.0894 2.45543C12.145 2.47596 12.1919 2.51502 12.2221 2.56605C13.6442 4.46824 15.0723 6.36612 16.5065 8.2597C16.5435 8.30876 16.577 8.36213 16.6106 8.41205Z" fill="#286FEB"/>
<path d="M19.6425 6.43961C19.6438 6.69882 19.5662 6.95227 19.4198 7.16618C19.2734 7.38009 19.0654 7.54426 18.8233 7.63684C18.5828 7.73612 18.3169 7.75627 18.0641 7.69438C17.8113 7.63248 17.5848 7.49175 17.4173 7.29255C16.987 6.76924 16.5852 6.21755 16.1756 5.6753C15.2864 4.49956 14.3993 3.32324 13.5141 2.14635C12.9832 1.4397 13.1355 0.582421 13.8583 0.166693C14.3677 -0.12337 15.0234 -0.043321 15.4072 0.405114C15.791 0.853549 16.1291 1.3295 16.4828 1.79773C17.4236 3.04176 18.363 4.28693 19.3009 5.53325C19.5022 5.80523 19.6563 6.0893 19.6425 6.43961Z" fill="#286FEB"/>
<path d="M9.08483 14.7003C8.89412 14.7048 8.7051 14.6637 8.53345 14.5805C8.3618 14.4972 8.21247 14.3742 8.09785 14.2217C6.78389 12.4882 5.46821 10.7565 4.17318 9.00836C3.98379 8.75578 3.89745 8.44062 3.93164 8.12675C3.96583 7.81288 4.118 7.52375 4.35732 7.31789C4.58486 7.11184 4.87878 6.9943 5.18562 6.98672C5.49245 6.97914 5.79182 7.08201 6.02924 7.27658C6.13303 7.36462 6.22578 7.46488 6.30546 7.57523C7.5612 9.23642 8.81435 10.8991 10.0649 12.5631C10.533 13.1863 10.4754 13.9231 9.9324 14.3921C9.69945 14.5991 9.39628 14.7094 9.08483 14.7003Z" fill="#286FEB"/>
<path d="M17.8609 13.2676C18.3583 13.9286 18.8444 14.5733 19.3306 15.2179L21.6814 18.3372C22.0076 18.7676 22.1057 19.2366 21.869 19.7436C21.4913 20.5544 20.3709 20.749 19.7892 20.0707C19.2773 19.4751 18.8246 18.8287 18.3497 18.2012C17.5047 17.0823 16.6622 15.9634 15.8018 14.822L17.8609 13.2676Z" fill="#286FEB"/>
<path d="M17.0858 12.2418L15.0267 13.7911L14.2256 12.729L16.2847 11.1797L17.0858 12.2418Z" fill="#286FEB"/>
</g>
<defs>
<clipPath id="clip0_419_5573">
<rect width="22" height="22" fill="white"/>
</clipPath>
</defs>
</svg>
