<svg width="22" height="22" viewBox="0 0 22 22" fill="none" xmlns="http://www.w3.org/2000/svg">
<path d="M19.9925 17.5122L18.209 19.296C18.0161 19.488 17.8189 19.6758 17.6338 19.8748C17.6193 19.8962 17.6007 19.9145 17.5789 19.9286C17.5572 19.9427 17.5329 19.9522 17.5074 19.9566C17.4819 19.9611 17.4558 19.9603 17.4306 19.9544C17.4054 19.9484 17.3816 19.9375 17.3608 19.9221C16.975 19.7189 16.5797 19.5328 16.1922 19.3321C16.1489 19.3031 16.098 19.2876 16.0458 19.2876C15.9937 19.2876 15.9427 19.3031 15.8994 19.3321C15.1285 19.7869 14.2994 20.1346 13.4348 20.3657C13.3888 20.3826 13.3467 20.4089 13.3113 20.4429C13.2759 20.4768 13.2479 20.5177 13.229 20.5629C13.0619 21.0341 12.9129 21.5103 12.7553 21.9935H9.24439C9.10143 21.556 8.94212 21.1142 8.81381 20.662C8.75525 20.4527 8.64158 20.3709 8.44265 20.3175C7.63132 20.1075 6.85458 19.7815 6.13647 19.3494C6.08634 19.312 6.02618 19.2905 5.96373 19.2876C5.90127 19.2847 5.83937 19.3005 5.78598 19.333C5.40104 19.538 5.01094 19.7309 4.61566 19.9187C4.58417 19.9326 4.54989 19.9389 4.51552 19.9373C4.48114 19.9356 4.44762 19.926 4.4176 19.9092C3.61155 19.1151 2.8124 18.3133 2.00636 17.5062C2.22681 17.0644 2.43693 16.6277 2.66342 16.1971C2.69452 16.1509 2.71113 16.0964 2.71113 16.0407C2.71113 15.985 2.69452 15.9306 2.66342 15.8844C2.20619 15.1224 1.86324 14.2974 1.64553 13.4357C1.63623 13.3806 1.61056 13.3295 1.57186 13.2891C1.53317 13.2487 1.48323 13.2209 1.42852 13.2092C0.952299 13.0602 0.481245 12.9026 0.00244141 12.7476V9.24384C0.463161 9.09569 0.92302 8.94237 1.38632 8.80112C1.45478 8.78658 1.51734 8.75195 1.56598 8.70162C1.61461 8.65128 1.64711 8.58756 1.65931 8.51863C1.86972 7.6773 2.20437 6.87201 2.65222 6.12939C2.68773 6.07812 2.70732 6.01751 2.70854 5.95515C2.70977 5.8928 2.69258 5.83148 2.65911 5.77886C2.43866 5.35338 2.22853 4.92357 2.02186 4.51102C2.85373 3.67815 3.67442 2.85906 4.51921 2.01844C4.92912 2.22257 5.36487 2.4336 5.79287 2.6584C5.84609 2.69119 5.9079 2.70731 5.97035 2.7047C6.03281 2.70209 6.09305 2.68087 6.14336 2.64376C6.87824 2.20279 7.67421 1.87279 8.50551 1.66446C8.57808 1.65218 8.64523 1.61822 8.69811 1.56702C8.75099 1.51582 8.78712 1.44978 8.80175 1.37764C8.93954 0.918574 9.09282 0.465559 9.2418 0.00390625H12.7562C12.9095 0.475895 13.0662 0.943567 13.2126 1.41469C13.2242 1.47278 13.2532 1.52596 13.2956 1.56731C13.338 1.60866 13.3919 1.63624 13.4503 1.64638C14.3114 1.86526 15.1359 2.2088 15.8977 2.66613C15.9404 2.6961 15.991 2.71267 16.0432 2.71374C16.0953 2.71481 16.1466 2.70037 16.1905 2.67219C16.5843 2.4672 16.981 2.26938 17.3806 2.07875C17.4121 2.06441 17.4464 2.05763 17.481 2.05898C17.5155 2.06033 17.5493 2.06974 17.5795 2.08649C18.3856 2.8806 19.1856 3.68159 19.9908 4.48776C19.7686 4.93219 19.5602 5.368 19.3328 5.79951C19.3017 5.84553 19.2851 5.89983 19.2851 5.95541C19.2851 6.01098 19.3017 6.06528 19.3328 6.1113C19.7907 6.87147 20.1345 7.69475 20.3533 8.5548C20.3631 8.60983 20.389 8.6607 20.4278 8.7009C20.4666 8.7411 20.5165 8.76881 20.5712 8.78047C21.0483 8.92775 21.5185 9.08708 21.9973 9.24211V12.7562C21.5374 12.9052 21.0776 13.0594 20.6143 13.1998C20.5455 13.2132 20.4824 13.2472 20.4335 13.2974C20.3845 13.3475 20.3521 13.4114 20.3404 13.4805C20.1264 14.3294 19.7884 15.142 19.3372 15.8921C19.3053 15.9377 19.2877 15.9917 19.2868 16.0472C19.2859 16.1028 19.3016 16.1574 19.332 16.2039C19.5585 16.6329 19.7703 17.0695 19.9925 17.5122ZM3.90521 10.9785C3.90314 12.8598 4.64691 14.6651 5.97349 15.9988C7.30007 17.3326 9.10124 18.0859 10.9822 18.0936C12.8595 18.0943 14.6609 17.3519 15.9927 16.0286C17.3245 14.7053 18.0786 12.9086 18.0902 11.031C18.0957 9.15042 17.3555 7.34436 16.0318 6.00869C14.7081 4.67302 12.909 3.91671 11.0287 3.90555C9.14684 3.90051 7.33985 4.64244 6.00433 5.96848C4.66881 7.29453 3.91387 9.09634 3.90521 10.9785Z" fill="#f44336"/>
<path d="M6.48877 10.9911C6.494 9.79655 6.97154 8.65258 7.81714 7.80894C8.66275 6.96531 9.80772 6.49054 11.0021 6.48828C11.5958 6.48941 12.1834 6.60749 12.7315 6.83578C13.2795 7.06408 13.7772 7.39813 14.1962 7.81883C14.6151 8.23953 14.9471 8.73866 15.1732 9.28769C15.3992 9.83673 15.5149 10.4249 15.5137 11.0187C15.5069 12.2147 15.0266 13.3594 14.178 14.2021C13.3294 15.0449 12.1816 15.5171 10.9857 15.5155C9.79062 15.5084 8.64685 15.0286 7.80427 14.1809C6.96168 13.3332 6.48875 12.1864 6.48877 10.9911ZM12.4497 9.24442L10.3356 11.3977L9.56052 10.5605L8.66922 11.4562L10.345 13.1314C11.3328 12.1435 12.3369 11.1401 13.3281 10.1479L12.4497 9.24442Z" fill="#f44336"/>
</svg>
