<svg width="22" height="22" viewBox="0 0 22 22" fill="none" xmlns="http://www.w3.org/2000/svg">
<g clip-path="url(#clip0_419_5187)">
<path d="M10.9771 8.20345C7.77975 8.20345 4.58236 8.20345 1.38497 8.20345C0.664648 8.20345 0.121385 7.77291 0.0203334 7.11418C-0.0015598 6.88524 -0.00733295 6.65505 0.00305844 6.4253C0.00305844 6.03868 0.00305844 5.6503 0.00305844 5.2654C-0.00534789 4.9982 0.0710216 4.73519 0.221291 4.51379C0.37156 4.29239 0.588067 4.12391 0.839978 4.03233C3.01073 3.14656 5.18148 2.26135 7.35223 1.37672C8.37484 0.959094 9.39832 0.546627 10.4183 0.123832C10.5989 0.0438465 10.7941 0.00203376 10.9916 0.000996345C11.1892 -4.10719e-05 11.3848 0.0397345 11.5662 0.11782C14.7331 1.41118 17.8999 2.70281 21.0668 3.99273C21.7509 4.27172 22.0005 4.65403 22.0005 5.39801C22.0005 5.87075 22.0005 6.34521 22.0005 6.81622C22.0005 7.66095 21.4607 8.20172 20.6186 8.20172C17.4033 8.20287 14.1895 8.20345 10.9771 8.20345ZM11.6474 4.12103C11.6474 3.89887 11.6474 3.6767 11.6474 3.45454C11.6405 3.06878 11.371 2.78978 11.0065 2.7872C10.92 2.786 10.8342 2.80226 10.7541 2.83503C10.6741 2.86779 10.6016 2.91638 10.5409 2.97785C10.4802 3.03933 10.4326 3.11241 10.401 3.19271C10.3694 3.273 10.3544 3.35885 10.357 3.44506C10.351 3.88938 10.3518 4.33284 10.357 4.77717C10.3541 4.86337 10.3685 4.94929 10.3992 5.02992C10.4299 5.11056 10.4764 5.1843 10.5359 5.24688C10.5955 5.30945 10.6669 5.3596 10.7461 5.39441C10.8252 5.42923 10.9105 5.44802 10.997 5.44968C11.0835 5.44935 11.169 5.43189 11.2487 5.39832C11.3284 5.36476 11.4005 5.31576 11.4611 5.25415C11.5216 5.19254 11.5692 5.11957 11.6012 5.03947C11.6332 4.95936 11.6489 4.87372 11.6474 4.78751C11.6508 4.56277 11.6465 4.3406 11.6474 4.11844V4.12103Z" fill="#286FEB"/>
<path d="M11.0233 17.9158H20.574C21.48 17.9158 21.9982 18.4324 21.9991 19.3452C21.9991 19.7533 21.9991 20.1618 21.9991 20.5705C21.9991 21.4773 21.4809 21.9999 20.5723 21.9999H1.42765C0.533726 21.9999 0.00428166 21.4755 0.00341797 20.5903C0.00341797 20.1609 0.00341797 19.7304 0.00341797 19.2987C0.00341797 18.4514 0.540635 17.9141 1.38533 17.9141L11.0233 17.9158Z" fill="#286FEB"/>
<path d="M2.08154 16.6094V9.50195H6.11758V16.6094H2.08154Z" fill="#286FEB"/>
<path d="M8.98926 9.49512H13.0167V16.6129H8.98926V9.49512Z" fill="#286FEB"/>
<path d="M19.9109 16.616H15.8853V9.50684H19.9109V16.616Z" fill="#286FEB"/>
</g>
<defs>
<clipPath id="clip0_419_5187">
<rect width="22" height="22" fill="white"/>
</clipPath>
</defs>
</svg>
