<svg width="77" height="73" viewBox="0 0 77 73" fill="none" xmlns="http://www.w3.org/2000/svg">
<path d="M27.1615 72.9823C24.6387 73.1564 22.5564 72.0456 20.9269 69.749C14.5052 60.7097 7.99595 51.7364 1.55916 42.7031C-1.62756 38.2389 0.26757 32.643 5.45201 31.2651C8.70209 30.4004 11.4874 31.3611 13.6843 33.9099C16.6236 37.3123 19.5598 40.7227 22.4931 44.1411C23.8028 45.6601 24.1679 45.6631 25.553 44.1561C38.1651 30.4825 50.7731 16.8059 63.3771 3.12633C66.6363 -0.410147 70.4838 -0.974543 73.737 1.57724C77.3793 4.44125 78.0553 8.84234 75.3454 12.7451C62.4959 31.248 49.6354 49.741 36.7639 68.2239C34.4915 71.4932 31.3833 73.0213 27.1615 72.9823Z" fill="url(#paint0_linear_419_6524)"/>
<defs>
<linearGradient id="paint0_linear_419_6524" x1="38.5" y1="73" x2="38.5" y2="0" gradientUnits="userSpaceOnUse">
<stop stop-color="#AAD4FF"/>
<stop offset="0.5" stop-color="#286FEB"/>
<stop offset="1" stop-color="#286FEB"/>
</linearGradient>
</defs>
</svg>
