<svg xmlns="http://www.w3.org/2000/svg" width="15" height="15" viewBox="0 0 15 15"><g><g><g/><g><path fill="#60d168" d="M7.499 15C3.366 15-.001 11.63 0 7.499.001 3.368 3.37-.001 7.502 0c4.13.001 7.5 3.37 7.498 7.501-.002 4.13-3.37 7.5-7.501 7.499zM6.334 8.735c-.031-.026-.059-.047-.082-.07-.371-.339-.74-.68-1.115-1.018-.293-.266-.58-.538-.88-.793-.216-.182-.473-.197-.73-.091a.675.675 0 0 0-.432.58c-.034.286.082.51.29.7.806.731 1.61 1.464 2.414 2.198.392.357.786.352 1.16-.02l4.657-4.623c.041-.04.082-.083.117-.128a.749.749 0 0 0-.205-1.135c-.322-.184-.667-.123-.967.177L6.45 8.62c-.034.04-.073.074-.116.115z"/></g></g></g></svg>