<svg width="20" height="18" viewBox="0 0 20 18" fill="none" xmlns="http://www.w3.org/2000/svg">
<path d="M10.0047 2.48228C10.2932 2.17624 10.5356 1.9049 10.792 1.64933C12.9303 -0.480381 16.1304 -0.546639 18.2546 1.49709C20.4195 3.58106 20.6189 7.00437 18.5806 9.1751C15.7934 12.1433 12.9202 15.0279 10.0829 17.9471C10.0534 17.9682 10.0217 17.9859 9.98832 18C9.90388 17.9211 9.80772 17.8383 9.72015 17.7484C7.01893 14.9695 4.30833 12.2001 1.62196 9.407C0.109897 7.83496 -0.36702 5.94661 0.284244 3.86265C0.923781 1.81182 2.35453 0.528471 4.4514 0.107261C6.21443 -0.246902 7.76089 0.289469 9.07202 1.51681C9.38319 1.80866 9.66464 2.13049 10.0047 2.48228ZM10.047 15.8017C10.1297 15.6838 10.2185 15.5703 10.3128 15.4617C12.5019 13.2058 14.6931 10.9506 16.8864 8.69631C17.1222 8.47086 17.3437 8.23059 17.5494 7.97694C18.5533 6.64153 18.7104 5.20121 17.9661 3.70095C17.2531 2.26379 15.7887 1.47028 14.2133 1.61541C13.2939 1.69981 12.534 2.1226 11.8882 2.77019C11.2627 3.39569 10.6466 4.02672 9.99379 4.6885C9.3308 4.01331 8.71081 3.36414 8.07127 2.73469C6.72262 1.40638 4.84779 1.21392 3.3326 2.23382C1.2631 3.62759 0.974601 6.47273 2.74232 8.30744C5.08781 10.7416 7.4505 13.1561 9.80616 15.5784C9.86088 15.6352 9.91952 15.6841 10.047 15.8017Z" fill="#405986"/>
</svg>
