<svg width="22" height="22" viewBox="0 0 22 22" fill="none" xmlns="http://www.w3.org/2000/svg">
<g clip-path="url(#clip0_419_1574)">
<path d="M3.14006 5.50498C2.38649 5.50498 1.63227 5.50498 0.877391 5.50498C0.453387 5.50498 0.16908 5.32397 0.0461087 4.9836C-0.0768624 4.64323 0.0244653 4.32647 0.353044 4.053C1.87001 2.79121 3.38633 1.52745 4.90199 0.261724C5.18236 0.0266135 5.47946 -0.0855205 5.82673 0.0758103C6.174 0.237141 6.29303 0.544047 6.29107 0.920814C6.28418 2.13965 6.29107 3.35948 6.29107 4.57832C6.29107 5.20101 5.99594 5.50104 5.37813 5.50202C4.63047 5.50399 3.88444 5.50498 3.14006 5.50498Z" fill="#286FEB"/>
<path d="M17.2848 6.80144C17.2848 5.36258 17.2848 3.92275 17.2848 2.48192C17.2848 1.00633 16.2784 0.00293685 14.8027 0.00195312H7.07131V0.305909C7.07131 1.7369 7.07131 3.16856 7.07131 4.60086C7.07131 5.63181 6.41514 6.28597 5.38316 6.28597H0.00195312V6.58109C0.00195312 10.3619 0.00195312 14.1417 0.00195312 17.9205C0.00195312 19.4285 0.999495 20.4241 2.50859 20.425H10.2804C10.2567 20.1083 10.2164 19.824 10.2164 19.5397C10.2118 16.4639 10.2118 13.3878 10.2164 10.3114C10.2164 8.43641 11.5779 7.07295 13.4501 7.07098C14.6365 7.07098 15.8229 7.07098 17.0093 7.07098H17.2868L17.2848 6.80144ZM8.62173 14.9083V14.9231H8.54204C8.50456 14.9285 8.46677 14.9315 8.42891 14.9319C6.46137 14.9319 4.49384 14.9319 2.5263 14.9319C2.49074 14.9318 2.45524 14.9292 2.42005 14.9241H2.38365C2.21973 14.894 2.07065 14.8098 1.96024 14.6849C1.84984 14.5601 1.78451 14.4018 1.7747 14.2355C1.75166 14.0541 1.793 13.8703 1.89151 13.7163C1.99003 13.5622 2.13947 13.4476 2.31381 13.3924C2.40002 13.3735 2.48831 13.3659 2.57647 13.3698C3.54909 13.3698 4.52204 13.3698 5.49531 13.3698H8.41415C8.46426 13.37 8.51427 13.3742 8.56368 13.3826H8.62763V13.3953C8.79782 13.4345 8.94874 13.5324 9.05384 13.6719C9.15893 13.8113 9.21145 13.9834 9.20215 14.1577C9.20758 14.3308 9.15263 14.5003 9.04672 14.6372C8.94082 14.7742 8.79056 14.87 8.62173 14.9083ZM8.62173 10.9734V10.9872H8.54893C8.50694 10.9938 8.46453 10.9974 8.42202 10.998C6.45448 10.998 4.48695 10.998 2.51941 10.998C2.47889 10.9978 2.43844 10.9945 2.39841 10.9882H2.37086C2.20803 10.9569 2.06029 10.8722 1.95105 10.7475C1.84181 10.6227 1.77733 10.4651 1.76782 10.2996C1.74478 10.1182 1.78611 9.93443 1.88463 9.78038C1.98314 9.62632 2.13258 9.51171 2.30692 9.45651C2.39313 9.43764 2.48142 9.43004 2.56959 9.43389C3.54221 9.43389 4.51515 9.43389 5.48842 9.43389C6.4617 9.43389 7.43465 9.43389 8.40726 9.43389C8.46971 9.43396 8.53199 9.44022 8.59319 9.45257H8.62369V9.46045C8.79316 9.50014 8.94327 9.59817 9.04776 9.73736C9.15225 9.87656 9.20447 10.048 9.19526 10.2219C9.20187 10.394 9.14864 10.5632 9.04461 10.7006C8.94059 10.8379 8.79221 10.9351 8.62468 10.9754L8.62173 10.9734Z" fill="#286FEB"/>
<path d="M21.998 10.3393C21.998 8.86376 20.9926 7.85938 19.518 7.8584C17.5052 7.8584 15.4924 7.8584 13.4796 7.8584C12.0039 7.8584 11.0005 8.86376 10.9995 10.3393C10.9995 11.8694 10.9995 13.3991 10.9995 14.9284C10.9995 16.4578 10.9995 17.9878 10.9995 19.5185C10.9995 20.9941 12.0059 21.9984 13.4796 21.9994H19.518C20.9936 21.9994 21.998 20.9941 21.998 19.5185C21.9993 16.4591 21.9993 13.3994 21.998 10.3393ZM15.695 18.8456H14.1554V17.31H15.695V18.8456ZM14.1564 15.6977V14.1552H15.695V15.6977H14.1564ZM18.8382 18.8358H17.2907V17.31H18.8382V18.8358ZM17.2966 15.6977V14.1562H18.8362V15.6977H17.2966ZM18.3994 12.5429H18.3522V12.5586H14.6463V12.5429C14.1269 12.5429 13.7708 12.2173 13.7728 11.7559C13.7747 11.2946 14.1289 10.9758 14.6532 10.9749H18.4063C18.909 10.9749 19.2641 11.2975 19.2691 11.751C19.274 12.2045 18.9159 12.5419 18.3994 12.5429Z" fill="#286FEB"/>
</g>
<defs>
<clipPath id="clip0_419_1574">
<rect width="22" height="22" fill="white"/>
</clipPath>
</defs>
</svg>
