<svg xmlns="http://www.w3.org/2000/svg" width="22" height="24" viewBox="0 0 22 24"><g><g><g/><g><path fill="#286feb" d="M14.108 23.995c0-1.727-.006-3.382 0-5.035.005-1.09-.394-1.985-1.346-2.617-1.914-1.275-4.637-.13-4.813 2.088-.128 1.63-.045 3.277-.057 4.917v.618c-.175.012-.303.028-.43.028H.922c-.844 0-1.14-.47-.756-1.206 1.571-3 3.15-5.997 4.713-9.002.14-.27.307-.346.605-.346 3.672.009 7.344.009 11.015 0 .323 0 .493.094.637.376 1.554 2.99 3.128 5.973 4.691 8.96.395.757.099 1.22-.782 1.22h-6.441z"/></g><g><path fill="#286feb" d="M16.17 12.036H5.83c.093-.196.158-.347.235-.492 1.271-2.427 2.532-4.858 3.83-7.272.222-.414.214-.727-.016-1.119-.382-.652-.715-1.332-1.059-2.004-.25-.49-.137-.877.29-1.068.427-.192.768-.04 1.03.436.275.506.542 1.018.859 1.613.303-.578.56-1.075.825-1.568.275-.512.628-.671 1.051-.483.442.194.546.59.278 1.11-.375.726-.749 1.455-1.147 2.171-.147.265-.13.474.009.738a1234.5 1234.5 0 0 1 3.87 7.358c.087.165.165.335.285.58z"/></g><g><path fill="#286feb" d="M12.618 23.983H9.4a2.434 2.434 0 0 1-.046-.32c0-1.59-.009-3.179 0-4.769.006-.864.528-1.503 1.305-1.643.962-.173 1.9.39 1.937 1.326.074 1.786.022 3.576.022 5.406z"/></g></g></g></svg>