<svg xmlns="http://www.w3.org/2000/svg" width="29" height="19" viewBox="0 0 29 19"><g><g><path fill="#f44336" d="M24.211 12.34h-8.398v6.639h-4.796c-.022-.26-.064-.518-.064-.775 0-3.39 0-6.781-.01-10.17a1.48 1.48 0 0 1 .143-.722c.107-.224.27-.415.47-.556C14.155 4.702 16.73 2.62 19.31.546c.204-.162.417-.313.676-.506.233.172.47.333.688.508 2.584 2.072 5.161 4.152 7.755 6.21.404.321.607.664.605 1.203-.017 3.417 0 6.834-.011 10.249 0 .236-.034.471-.058.77h-4.754z"/></g><g><path fill="#f44336" d="M8.758 18.995H0V7.165l1.981-1.618V.389h2.41v3.23L8.923 0l3.704 2.965c-1.273 1.137-2.588 2.077-3.87 3.177zm-3.374-6.784H3.318v3.33h2.066z"/></g><g><path fill="#f44336" d="M21.951 14.6H18v4.343l.013.03h3.966c.011-1.484.044-2.903-.028-4.373z"/></g></g></svg>
