<svg width="9" height="11" viewBox="0 0 9 11" fill="none" xmlns="http://www.w3.org/2000/svg">
<path d="M7.644 8.488C7.224 8.642 6.79 8.726 6.37 8.726C4.606 8.726 3.57 7.9 3.136 6.682H5.782L6.02 5.506H2.828C2.814 5.408 2.814 5.268 2.814 5.156C2.814 5.03 2.814 4.876 2.828 4.75H6.244L6.51 3.56H3.164C3.626 2.342 4.662 1.516 6.37 1.516C6.706 1.516 7.042 1.544 7.378 1.642L7.854 0.242C7.378 0.102 6.874 0.0319998 6.37 0.0319998C3.598 0.0319998 2.072 1.558 1.568 3.56H0.602V4.75H1.386C1.372 4.89 1.372 5.03 1.372 5.17C1.372 5.268 1.372 5.394 1.372 5.506H0.602V6.682H1.54C2.03 8.74 3.5 10.196 6.37 10.196C6.944 10.196 7.546 10.112 8.078 9.944L7.644 8.488Z" fill="#405986"/>
</svg>
