<svg width="23" height="23" viewBox="0 0 23 23" fill="none" xmlns="http://www.w3.org/2000/svg">
<g clip-path="url(#clip0_419_5447)">
<path d="M15.427 10.6233C15.234 10.541 15.0464 10.4465 14.8653 10.3405C14.6901 10.2269 14.5664 10.2242 14.393 10.3522C14.1717 10.5061 13.9372 10.6402 13.6923 10.7531C13.5758 10.8116 13.518 10.8711 13.5288 11.0062C13.5374 11.1562 13.5374 11.3066 13.5288 11.4566C13.5311 11.547 13.5151 11.6369 13.4817 11.7209C13.4483 11.8049 13.3982 11.8813 13.3344 11.9456C13.2706 12.0098 13.1945 12.0605 13.1106 12.0945C13.0267 12.1286 12.9367 12.1455 12.8461 12.144C11.9521 12.1494 11.0583 12.1494 10.1649 12.144C9.75673 12.144 9.44246 11.8503 9.4822 11.4449C9.52645 10.9945 9.40725 10.7179 8.96114 10.5693C8.75433 10.5008 8.58004 10.2522 8.38679 10.2459C8.19353 10.2396 7.99667 10.4422 7.79529 10.5395C7.64419 10.6212 7.46691 10.6401 7.30191 10.5922C7.13692 10.5443 6.9975 10.4335 6.9139 10.2837C6.45214 9.50296 5.9982 8.71827 5.55209 7.92972C5.36154 7.59099 5.46178 7.1829 5.81398 7.02885C6.24473 6.83787 6.43708 6.57844 6.32059 6.10819C6.29663 6.00513 6.29849 5.89775 6.32601 5.79557C6.40187 5.52081 6.29531 5.36137 6.04155 5.26587C5.95938 5.22921 5.88104 5.18455 5.80765 5.13255C5.47533 4.92445 5.36245 4.55598 5.55389 4.21726C5.9994 3.4281 6.45304 2.64378 6.9148 1.86423C7.10896 1.53631 7.5036 1.40926 7.81154 1.62907C8.21611 1.91825 8.56018 1.94618 8.9214 1.59304C8.97228 1.54612 9.03452 1.5132 9.10201 1.49755C9.44879 1.41287 9.49665 1.18134 9.4831 0.861532C9.45691 0.240836 9.71067 0.00390625 10.3284 0.00390625H12.7386C13.2696 0.00390625 13.5595 0.26427 13.5252 0.78407C13.499 1.16604 13.5857 1.41919 13.9767 1.53991C14.1268 1.59041 14.264 1.67313 14.3786 1.78224C14.5592 1.94799 14.7055 1.92096 14.887 1.79394C15.5011 1.36422 15.9011 1.45792 16.275 2.1615C16.6263 2.82183 17.0209 3.46055 17.3948 4.10918C17.6594 4.56862 17.5754 4.94429 17.1058 5.17671C16.7618 5.34698 16.5848 5.54514 16.6805 5.94333C16.716 6.09777 16.7136 6.25852 16.6733 6.41179C16.6055 6.65773 16.7202 6.77214 16.9162 6.85682C17.0099 6.90298 17.1004 6.95532 17.1871 7.01354C17.5402 7.23606 17.6386 7.60274 17.4354 7.96579C16.9984 8.73423 16.5513 9.49726 16.1079 10.2612C15.977 10.4828 15.7783 10.5972 15.427 10.6233ZM11.5123 4.04702C10.9771 4.04626 10.4632 4.25598 10.082 4.63069C9.70078 5.00541 9.48301 5.51489 9.47588 6.04872C9.47179 6.58663 9.68202 7.10415 10.0603 7.48747C10.4387 7.87078 10.9541 8.0885 11.4933 8.09278C12.0286 8.09354 12.5426 7.88389 12.9239 7.5092C13.3053 7.13451 13.5232 6.62499 13.5306 6.09108C13.534 5.55349 13.3233 5.03654 12.9449 4.65379C12.5664 4.27103 12.0512 4.05375 11.5123 4.04971V4.04702Z" fill="#f44336"/>
<path d="M4.14509 8.18839C4.65532 9.07304 5.17729 9.93879 5.65952 10.8261C6.16975 11.7667 7.20375 12.154 8.0752 11.8783C8.09525 11.8752 8.11567 11.8752 8.13571 11.8783C8.14655 11.8855 8.15648 11.8883 8.15919 11.8946C8.61072 13.0999 9.18055 13.4945 10.4773 13.4945H12.735C13.7852 13.4945 14.5032 12.972 14.8211 11.9784C14.8319 11.945 14.8436 11.9108 14.8608 11.863C15.2593 11.9894 15.6864 11.9951 16.088 11.8793C16.5585 11.7342 16.9496 11.473 17.2024 11.0532C17.7072 10.2118 18.1904 9.35684 18.6789 8.50642C18.7376 8.40372 18.7765 8.29018 18.8324 8.16406L19.7852 8.63794C20.7183 9.10399 21.6515 9.56911 22.5847 10.0334C22.8411 10.1613 22.9974 10.3604 23.001 10.6505C23.0046 10.9405 22.8483 11.1585 22.5828 11.2892L22.5034 11.3306L16.3237 14.4125C14.8743 15.1332 13.4231 15.8539 11.9791 16.5863C11.8363 16.6669 11.675 16.7092 11.5109 16.7092C11.3468 16.7092 11.1855 16.6669 11.0427 16.5863C7.53698 14.8278 4.0289 13.0741 0.518409 11.3252C0.363349 11.2529 0.227537 11.1452 0.121968 11.0108C0.0687703 10.9349 0.0328167 10.8483 0.0166201 10.757C0.000423551 10.6658 0.00437315 10.5722 0.0281895 10.4826C0.0520058 10.3931 0.095115 10.3098 0.154515 10.2386C0.213915 10.1674 0.288179 10.1099 0.372117 10.0703C1.62285 9.4397 2.88081 8.81539 4.13606 8.19019C4.14329 8.18389 4.15954 8.18659 4.14509 8.18839Z" fill="#f44336"/>
<path d="M23.0001 13.8075C22.9838 14.121 22.8195 14.3192 22.5486 14.4534C21.5209 14.9624 20.4959 15.4768 19.47 15.9849C16.9812 17.2263 14.4936 18.4692 12.0072 19.7136C11.8558 19.7994 11.6846 19.8445 11.5105 19.8445C11.3363 19.8445 11.1652 19.7994 11.0138 19.7136C7.52196 17.9605 4.02742 16.2152 0.530179 14.4777C0.448557 14.4401 0.370046 14.3961 0.295383 14.3462C0.207565 14.2843 0.136012 14.2022 0.086799 14.1068C0.0375866 14.0115 0.0121717 13.9056 0.0127035 13.7984C0.0132353 13.6911 0.0397023 13.5856 0.0898581 13.4907C0.140014 13.3959 0.212374 13.3144 0.300801 13.2534C0.336924 13.2273 0.379369 13.2093 0.415492 13.1832C0.678282 12.9931 0.913979 13.0156 1.21289 13.1669C4.32483 14.7363 7.44249 16.2951 10.5659 17.8434C11.2179 18.1677 11.8627 18.1397 12.5111 17.8154C15.3792 16.3806 18.2494 14.9486 21.1217 13.5192C21.4297 13.3661 21.734 13.203 22.0492 13.0634C22.1483 13.031 22.2552 13.031 22.3544 13.0634C22.4679 13.1025 22.5756 13.1564 22.675 13.2237C22.7755 13.2843 22.8583 13.37 22.9154 13.4724C22.9724 13.5748 23.0016 13.6903 23.0001 13.8075Z" fill="#f44336"/>
<path d="M22.9998 16.9454C22.9881 17.2571 22.8291 17.4607 22.5555 17.5958C21.6151 18.0619 20.6762 18.53 19.7389 19.0003C17.1561 20.2885 14.5746 21.5797 11.9942 22.874C11.8455 22.9586 11.6773 23.0031 11.5061 23.0031C11.335 23.0031 11.1667 22.9586 11.018 22.874C7.51357 21.1155 4.00549 19.3639 0.493796 17.6193C0.105481 17.4256 -0.059777 17.1337 0.0269166 16.7995C0.094646 16.5391 0.541657 16.1599 0.80535 16.1562C0.886657 16.1692 0.964076 16.1999 1.03202 16.2463C4.17105 17.812 7.30948 19.3795 10.4473 20.9489C11.1625 21.3092 11.8452 21.3092 12.5568 20.9489C15.6787 19.3831 18.8096 17.8346 21.9261 16.2598C22.2449 16.0986 22.4327 16.2598 22.6585 16.3779C22.7614 16.4329 22.8475 16.5148 22.9075 16.6147C22.9676 16.7146 22.9995 16.8289 22.9998 16.9454Z" fill="#f44336"/>
</g>
<defs>
<clipPath id="clip0_419_5447">
<rect width="23" height="23" fill="white"/>
</clipPath>
</defs>
</svg>
