<svg width="115" height="67" viewBox="0 0 115 67" fill="none" xmlns="http://www.w3.org/2000/svg">
<path d="M113.926 38.1189L95.2852 0.555912C95.1582 0.299912 94.9282 0.110911 94.6532 0.0359112C94.3772 -0.0400888 94.0832 0.00591116 93.8442 0.160911L79.1712 9.68091C78.7172 9.97491 78.5802 10.5769 78.8612 11.0389L80.6092 13.9149L72.2032 16.7849L56.9712 8.55191C56.6912 8.40091 56.3592 8.39191 56.0732 8.52591C56.0092 8.55591 50.5142 11.1479 41.6542 16.7479L33.4602 13.8529L35.1692 11.0399C35.4502 10.5779 35.3132 9.97691 34.8592 9.68191L20.1852 0.161913C19.9442 0.00591251 19.6512 -0.0390875 19.3762 0.0369125C19.1012 0.111913 18.8712 0.300911 18.7442 0.556911L0.104168 38.1189C-0.0318323 38.3929 -0.0348327 38.7139 0.0961673 38.9909C0.227167 39.2669 0.477168 39.4689 0.775168 39.5379L15.0512 42.8279C15.1262 42.8449 15.2012 42.8529 15.2762 42.8529C15.6202 42.8529 15.9462 42.6749 16.1302 42.3719L17.6462 39.8769L20.1412 43.3149L18.8652 45.2659C18.1682 46.3319 17.9272 47.6049 18.1872 48.8509C18.4472 50.0979 19.1782 51.1679 20.2452 51.8649C21.0242 52.3729 21.9252 52.6419 22.8512 52.6419C22.9892 52.6419 23.1252 52.6279 23.2612 52.6169C22.5842 54.6239 23.2972 56.9159 25.1502 58.1319C25.9282 58.6409 26.8292 58.9099 27.7552 58.9099C28.5822 58.9099 29.3752 58.6969 30.0712 58.3089C30.3442 59.5269 31.0622 60.5729 32.1092 61.2569C32.8872 61.7659 33.7872 62.0349 34.7132 62.0349C35.9422 62.0349 37.0972 61.5649 37.9692 60.7469C38.3042 61.7749 38.9532 62.6609 39.8712 63.2599C40.6492 63.7709 41.5512 64.0409 42.4782 64.0409C43.7502 64.0409 44.9412 63.5339 45.8262 62.6599L51.2812 66.2469C52.0802 66.7539 52.9732 66.9969 53.8562 66.9969C55.4482 66.9969 57.0062 66.2099 57.9202 64.7739C58.4852 63.8879 58.7102 62.8859 58.6522 61.9089L59.2072 62.2629C60.0922 62.8269 61.0812 63.0959 62.0602 63.0959C63.8192 63.0959 65.5422 62.2259 66.5572 60.6369C67.2732 59.5119 67.4892 58.2199 67.3042 56.9939C67.8552 57.1839 68.4292 57.2919 69.0132 57.2919C69.3982 57.2919 69.7852 57.2499 70.1712 57.1649C71.5602 56.8579 72.7462 56.0269 73.5092 54.8279C74.1752 53.7849 74.4262 52.5709 74.2832 51.3579C75.0902 51.8019 75.9652 52.0289 76.8362 52.0289C78.5942 52.0289 80.3162 51.1599 81.3292 49.5709C82.1522 48.2799 82.3322 46.7679 81.9772 45.3889L88.6092 39.2589L94.2422 36.3539L97.8982 42.3709C98.0822 42.6739 98.4092 42.8519 98.7522 42.8519C98.8262 42.8519 98.9022 42.8439 98.9772 42.8269L113.254 39.5369C113.552 39.4679 113.802 39.2659 113.933 38.9899C114.065 38.7139 114.062 38.3929 113.926 38.1189ZM14.7972 40.7169L2.45917 37.8739L20.0372 2.44991L32.9552 10.8299L14.7972 40.7169ZM21.3392 50.1919C20.7202 49.7879 20.2972 49.1669 20.1462 48.4439C19.9952 47.7209 20.1352 46.9809 20.5402 46.3619L22.7082 43.0479C23.2222 42.2629 24.0892 41.7949 25.0282 41.7949C25.5642 41.7949 26.0862 41.9509 26.5382 42.2469C27.1572 42.6509 27.5812 43.2719 27.7322 43.9969C27.8832 44.7209 27.7442 45.4599 27.3392 46.0789L25.1722 49.3929C24.3622 50.6249 22.5832 51.0059 21.3392 50.1919ZM27.7562 56.9119C27.2192 56.9119 26.6972 56.7559 26.2462 56.4609C24.9702 55.6239 24.6102 53.9049 25.4432 52.6289L30.0782 45.5419C30.5912 44.7569 31.4572 44.2879 32.3972 44.2879C32.9342 44.2879 33.4562 44.4439 33.9092 44.7409C34.5292 45.1449 34.9532 45.7669 35.1042 46.4909C35.2552 47.2139 35.1152 47.9519 34.7102 48.5709L30.0732 55.6599C29.5612 56.4439 28.6952 56.9119 27.7562 56.9119ZM34.7132 60.0369C34.1772 60.0369 33.6562 59.8809 33.2042 59.5849C32.5852 59.1809 32.1612 58.5599 32.0092 57.8359C31.8582 57.1129 31.9972 56.3739 32.4012 55.7549L35.6932 50.7249C36.2062 49.9389 37.0732 49.4699 38.0122 49.4699C38.5492 49.4699 39.0722 49.6269 39.5252 49.9229C40.7992 50.7559 41.1572 52.4749 40.3242 53.7529L37.0292 58.7829C36.5162 59.5679 35.6512 60.0369 34.7132 60.0369ZM40.9672 61.5889C40.3462 61.1829 39.9212 60.5599 39.7692 59.8359C39.6192 59.1149 39.7592 58.3789 40.1652 57.7619L41.0152 56.4589C41.5292 55.6729 42.3962 55.2049 43.3362 55.2049C43.8722 55.2049 44.3942 55.3609 44.8462 55.6569C45.4642 56.0609 45.8882 56.6819 46.0392 57.4059C46.1902 58.1299 46.0502 58.8689 45.6432 59.4899L44.7972 60.7889C43.9892 62.0229 42.2112 62.4049 40.9672 61.5889ZM87.5722 37.5449C87.4922 37.5859 87.4182 37.6379 87.3522 37.6989L81.0662 43.5089C80.6962 43.0199 80.2512 42.5769 79.7052 42.2289L72.4412 37.5999L63.3902 31.4869C63.8282 31.5159 64.2752 31.5349 64.7402 31.5349C67.3452 31.5349 70.3682 31.0509 73.7192 29.6919C74.2312 29.4839 74.4772 28.9009 74.2702 28.3889C74.0622 27.8769 73.4792 27.6319 72.9672 27.8379C66.9022 30.2969 62.0782 29.6339 59.0632 28.6299C59.0182 28.6149 58.9772 28.5929 58.9312 28.5849C56.9042 27.8909 55.7202 27.0589 55.6032 26.9729C55.1602 26.6439 54.5332 26.7379 54.2062 27.1799C53.8762 27.6229 53.9682 28.2499 54.4122 28.5789C54.5442 28.6779 55.9512 29.6889 58.3622 30.5019L71.3442 39.2709L78.6282 43.9139C80.1702 44.8989 80.6252 46.9549 79.6422 48.4969C78.6592 50.0379 76.6022 50.4939 75.0602 49.5119L71.8972 47.4959C71.8922 47.4929 71.8882 47.4879 71.8832 47.4849L66.7372 44.2039C66.2732 43.9089 65.6542 44.0439 65.3562 44.5099C65.0592 44.9759 65.1962 45.5939 65.6622 45.8909L70.0472 48.6869C70.0502 48.6889 70.0512 48.6919 70.0542 48.6939L70.8232 49.1839C71.5622 49.6619 72.0752 50.3959 72.2652 51.2549C72.4562 52.1199 72.2992 53.0069 71.8222 53.7549C71.3452 54.5049 70.6052 55.0229 69.7392 55.2139C68.8772 55.4059 67.9892 55.2489 67.2422 54.7709L62.8782 51.9889L60.0442 50.1819C59.5792 49.8869 58.9612 50.0219 58.6632 50.4879C58.3662 50.9539 58.5032 51.5719 58.9692 51.8689L63.8532 54.9829C65.3962 55.9669 65.8532 58.0239 64.8732 59.5649C63.8892 61.1089 61.8302 61.5639 60.2862 60.5789L56.4642 58.1429C56.4612 58.1409 56.4592 58.1379 56.4552 58.1359L53.5152 56.2629C53.0482 55.9649 52.4312 56.1029 52.1352 56.5689C51.8382 57.0349 51.9752 57.6529 52.4412 57.9489L55.2322 59.7269C55.2342 59.7279 55.2352 59.7309 55.2372 59.7319L55.3922 59.8309C56.6872 60.6669 57.0672 62.3989 56.2372 63.7009C55.4062 65.0059 53.6672 65.3909 52.3702 64.5689L47.0152 61.0489L47.3182 60.5839C48.0172 59.5179 48.2582 58.2429 47.9972 56.9959C47.7362 55.7499 47.0052 54.6799 45.9412 53.9839C45.1632 53.4739 44.2622 53.2049 43.3362 53.2049C43.1042 53.2049 42.8752 53.2259 42.6492 53.2589C43.0592 51.3809 42.3182 49.3599 40.6192 48.2489C39.8402 47.7399 38.9392 47.4699 38.0122 47.4699C37.7072 47.4699 37.4092 47.5079 37.1162 47.5629C37.1682 47.0739 37.1662 46.5769 37.0622 46.0819C36.8012 44.8349 36.0702 43.7639 35.0042 43.0679C34.2262 42.5579 33.3242 42.2889 32.3972 42.2889C31.3612 42.2889 30.3792 42.6229 29.5732 43.2169C29.2542 42.1319 28.5882 41.1959 27.6312 40.5719C26.8532 40.0629 25.9532 39.7949 25.0272 39.7949C23.5792 39.7949 22.2342 40.4459 21.3332 41.5529L18.7732 38.0249L32.4382 15.5349C32.5302 15.6159 32.6372 15.6839 32.7602 15.7269L39.5182 18.1149C38.5282 18.7569 37.5152 19.4199 36.4552 20.1309C36.1922 20.3069 36.0282 20.5969 36.0132 20.9129L35.3632 34.2229C35.3412 34.6739 35.6242 35.0839 36.0532 35.2229C36.1232 35.2459 37.0472 35.5359 38.3852 35.5359C39.5442 35.5359 41.0132 35.3179 42.5052 34.5169C45.0102 33.1729 46.8402 30.6119 47.9482 26.9009C48.9182 26.3589 52.0242 24.7889 55.8312 24.5599C56.3822 24.5269 56.8022 24.0529 56.7692 23.5019C56.7362 22.9509 56.2722 22.5199 55.7112 22.5639C50.5852 22.8729 46.7242 25.2929 46.5622 25.3959C46.3542 25.5279 46.2022 25.7329 46.1352 25.9709C45.1972 29.3339 43.6662 31.6119 41.5872 32.7399C39.9482 33.6289 38.3112 33.5899 37.4012 33.4669L37.9852 21.5129C47.8772 14.9119 54.7082 11.4239 56.4692 10.5559L71.6362 18.7529C71.8812 18.8849 72.1712 18.9099 72.4352 18.8189L81.4842 15.7299C81.5482 15.7079 81.5952 15.6649 81.6512 15.6319L93.2012 34.6419L87.5722 37.5449ZM99.2322 40.7169L81.0752 10.8299L93.9922 2.44991L111.572 37.8739L99.2322 40.7169Z" fill="url(#paint0_linear_419_6506)"/>
<defs>
<linearGradient id="paint0_linear_419_6506" x1="57.0151" y1="66.9969" x2="57.0151" y2="0" gradientUnits="userSpaceOnUse">
<stop stop-color="#AAD4FF"/>
<stop offset="0.5" stop-color="#286FEB"/>
<stop offset="1" stop-color="#286FEB"/>
</linearGradient>
</defs>
</svg>
