<svg width="23" height="23" viewBox="0 0 23 23" fill="none" xmlns="http://www.w3.org/2000/svg">
<g clip-path="url(#clip0_419_1136)">
<path d="M14.4149 18.6811H8.56613C8.54004 18.5741 8.51663 18.467 8.48603 18.3617C8.29924 17.7333 7.91493 17.1818 7.39007 16.7889C6.2261 15.8996 5.39281 14.6467 5.02267 13.2294C4.77639 12.3167 4.72621 11.3621 4.87542 10.4286C5.02463 9.49508 5.36984 8.60373 5.88837 7.81323C6.40689 7.02273 7.08694 6.351 7.88378 5.84224C8.68062 5.33349 9.57618 4.99924 10.5115 4.86151C14.7955 4.23167 18.5504 7.74078 18.1842 12.0597C18.0249 13.9321 17.1989 15.4788 15.7547 16.6782C15.1851 17.1524 14.7064 17.6797 14.495 18.4076C14.4662 18.4931 14.4428 18.5794 14.4149 18.6811ZM11.8846 7.18922C11.3762 7.17752 11.0298 7.45916 11.019 7.89105C11.0082 8.32294 11.3402 8.61086 11.8342 8.62526C12.507 8.65059 13.1447 8.9321 13.6167 9.41215C14.0888 9.89221 14.3595 10.5345 14.3735 11.2076C14.387 11.6575 14.701 11.9895 15.1059 11.9787C15.5108 11.9679 15.8132 11.6323 15.8096 11.1797C15.7943 9.05895 14.0046 7.23961 11.8846 7.18922Z" fill="#286FEB"/>
<path d="M8.60303 20.1333H14.4041C14.3681 20.6921 14.3969 21.2598 14.2817 21.797C14.1287 22.5168 13.4476 22.9892 12.7053 22.9964C11.9341 23.0036 11.163 22.9964 10.3918 22.9964C9.47763 22.9964 8.79739 22.4304 8.67141 21.5235C8.61293 21.0754 8.62552 20.6183 8.60303 20.1333Z" fill="#286FEB"/>
<path d="M10.7804 1.65108C10.7804 1.34516 10.7804 1.03924 10.7804 0.733317C10.7786 0.63766 10.7959 0.542605 10.8313 0.453709C10.8666 0.364813 10.9194 0.283863 10.9864 0.215585C11.0534 0.147308 11.1334 0.0930754 11.2216 0.0560601C11.3099 0.0190448 11.4046 -1.68082e-05 11.5002 1.11208e-08C11.5957 -1.07269e-05 11.6902 0.0189599 11.7782 0.0558075C11.8663 0.0926551 11.9461 0.146641 12.0131 0.21463C12.0801 0.282619 12.1329 0.363259 12.1684 0.451842C12.204 0.540424 12.2215 0.635183 12.2201 0.730616C12.2267 1.35026 12.2267 1.96991 12.2201 2.58955C12.2208 2.68514 12.2025 2.77992 12.1662 2.86835C12.1299 2.95678 12.0763 3.03709 12.0086 3.1046C11.941 3.17211 11.8605 3.22546 11.772 3.26155C11.6835 3.29763 11.5886 3.31572 11.493 3.31476C11.3048 3.30944 11.1259 3.23157 10.9938 3.09742C10.8617 2.96327 10.7865 2.78323 10.784 2.59494V1.65108H10.7804Z" fill="#286FEB"/>
<path d="M1.65836 12.2181C1.35063 12.2181 1.04379 12.2181 0.73696 12.2181C0.640999 12.2204 0.54555 12.2034 0.456231 12.1683C0.366912 12.1331 0.285511 12.0805 0.216846 12.0134C0.148181 11.9463 0.0936319 11.8662 0.0563918 11.7777C0.0191517 11.6893 -2.70468e-05 11.5943 2.86275e-08 11.4983C-1.46114e-05 11.4027 0.0190136 11.308 0.0559744 11.2199C0.0929353 11.1317 0.147102 11.0518 0.215286 10.9848C0.28347 10.9178 0.364317 10.865 0.453112 10.8296C0.541907 10.7942 0.63687 10.7768 0.732456 10.7785C1.34613 10.7731 1.96009 10.7731 2.57436 10.7785C2.67024 10.7757 2.76572 10.7921 2.85516 10.8268C2.9446 10.8614 3.02621 10.9136 3.0952 10.9803C3.16419 11.0469 3.21916 11.1267 3.25689 11.2148C3.29462 11.303 3.31434 11.3979 3.3149 11.4938C3.31432 11.5895 3.29476 11.6842 3.25737 11.7723C3.21997 11.8604 3.16547 11.9403 3.09702 12.0072C3.02858 12.0742 2.94755 12.1269 2.85861 12.1623C2.76966 12.1977 2.67459 12.2151 2.57887 12.2136C2.27203 12.2217 1.9652 12.2181 1.65836 12.2181Z" fill="#286FEB"/>
<path d="M21.3327 12.2179C21.0259 12.2179 20.72 12.2179 20.414 12.2179C20.3186 12.2189 20.2238 12.2011 20.1352 12.1655C20.0467 12.1299 19.966 12.0771 19.8979 12.0102C19.8297 11.9434 19.7755 11.8637 19.7382 11.7758C19.7009 11.6879 19.6814 11.5935 19.6807 11.498C19.6812 11.4025 19.7008 11.308 19.7383 11.2202C19.7757 11.1323 19.8303 11.0527 19.8988 10.9862C19.9673 10.9196 20.0484 10.8673 20.1373 10.8324C20.2262 10.7975 20.3212 10.7806 20.4167 10.7827C21.0367 10.7773 21.6567 10.7764 22.2757 10.7827C22.4645 10.7827 22.6457 10.8568 22.7803 10.9891C22.915 11.1214 22.9923 11.3012 22.9956 11.4899C22.9965 11.5851 22.9786 11.6794 22.9428 11.7676C22.9071 11.8558 22.8542 11.936 22.7873 12.0036C22.7204 12.0712 22.6407 12.1249 22.5529 12.1615C22.4651 12.1981 22.3709 12.217 22.2757 12.217C21.9626 12.2224 21.6495 12.2179 21.3327 12.2179Z" fill="#286FEB"/>
<path d="M3.96652 3.14844C4.061 3.19882 4.24906 3.25461 4.37684 3.37428C4.83304 3.80437 5.27663 4.25156 5.71124 4.70145C5.77805 4.76725 5.83112 4.8457 5.86734 4.9322C5.90356 5.0187 5.92222 5.11154 5.92222 5.20532C5.92222 5.2991 5.90356 5.39194 5.86734 5.47845C5.83112 5.56495 5.77805 5.64339 5.71124 5.7092C5.6461 5.77687 5.56809 5.83081 5.48178 5.86785C5.39547 5.90488 5.3026 5.92426 5.20868 5.92485C5.11475 5.92544 5.02166 5.90722 4.93489 5.87126C4.84812 5.8353 4.76943 5.78234 4.70346 5.71549C4.24815 5.2728 3.79825 4.82292 3.35374 4.36583C3.25017 4.26616 3.18132 4.13587 3.15735 3.99414C3.13338 3.85241 3.15554 3.70672 3.22057 3.57853C3.34925 3.2996 3.5823 3.17273 3.96652 3.14844Z" fill="#286FEB"/>
<path d="M17.8898 17.0679C17.9798 17.1138 18.1597 17.1632 18.2857 17.2784C18.7464 17.7139 19.1927 18.1656 19.6354 18.6209C19.7022 18.6867 19.7553 18.7651 19.7915 18.8516C19.8277 18.9381 19.8464 19.031 19.8464 19.1248C19.8464 19.2185 19.8277 19.3114 19.7915 19.3979C19.7553 19.4844 19.7022 19.5628 19.6354 19.6286C19.5702 19.696 19.4922 19.7496 19.4059 19.7865C19.3196 19.8233 19.2269 19.8425 19.1331 19.843C19.0393 19.8435 18.9464 19.8253 18.8598 19.7894C18.7731 19.7535 18.6945 19.7007 18.6285 19.634C18.1732 19.1913 17.7233 18.7415 17.2788 18.2844C17.1751 18.1847 17.1063 18.0544 17.0825 17.9126C17.0587 17.7708 17.0811 17.6251 17.1466 17.4971C17.2707 17.219 17.5029 17.0913 17.8898 17.0679Z" fill="#286FEB"/>
<path d="M17.8738 5.9306C17.5139 5.90631 17.2845 5.78484 17.154 5.51761C17.0235 5.25037 17.0415 4.96424 17.2503 4.74469C17.7074 4.26481 18.1768 3.79454 18.6585 3.33386C18.7931 3.21154 18.9702 3.14673 19.152 3.15329C19.3337 3.15984 19.5057 3.23725 19.6312 3.36895C19.7607 3.49155 19.8377 3.65952 19.8461 3.83766C19.8545 4.0158 19.7936 4.19028 19.6762 4.32451C19.2155 4.81308 18.7368 5.28636 18.25 5.74884C18.1402 5.85322 17.9638 5.88921 17.8738 5.9306Z" fill="#286FEB"/>
<path d="M5.93086 17.8901C5.87957 17.9855 5.82288 18.1736 5.70321 18.3004C5.2785 18.7503 4.83579 19.1867 4.39218 19.6195C4.32677 19.6894 4.24781 19.7452 4.16013 19.7836C4.07246 19.822 3.9779 19.8421 3.88219 19.8428C3.78649 19.8434 3.69163 19.8246 3.60342 19.7875C3.51521 19.7503 3.4355 19.6956 3.36911 19.6267C3.30103 19.5597 3.24718 19.4796 3.21079 19.3913C3.17439 19.303 3.15618 19.2082 3.15727 19.1127C3.15837 19.0172 3.17873 18.9229 3.21714 18.8354C3.25554 18.7479 3.31121 18.6691 3.3808 18.6037C3.8157 18.161 4.25422 17.7225 4.69633 17.2882C4.7978 17.1817 4.93053 17.1102 5.07532 17.0842C5.22011 17.0581 5.36942 17.0789 5.50165 17.1433C5.78059 17.2738 5.90747 17.5041 5.93086 17.8901Z" fill="#286FEB"/>
</g>
<defs>
<clipPath id="clip0_419_1136">
<rect width="23" height="23" fill="white"/>
</clipPath>
</defs>
</svg>
