<svg width="20" height="19" viewBox="0 0 20 19" fill="none" xmlns="http://www.w3.org/2000/svg">
<path d="M7.05492 18.9956C6.39964 19.0409 5.85881 18.7518 5.43554 18.1541C3.76757 15.8013 2.07687 13.4658 0.404975 11.1146C-0.422741 9.95272 0.0694986 8.49623 1.4161 8.13758C2.26028 7.91254 2.98375 8.16258 3.55437 8.82597C4.31781 9.71153 5.08047 10.5992 5.84235 11.4889C6.18253 11.8843 6.27737 11.8851 6.63714 11.4928C9.91299 7.9339 13.1878 4.37419 16.4616 0.813712C17.3081 -0.106752 18.3075 -0.253651 19.1524 0.410521C20.0985 1.15596 20.2741 2.30146 19.5702 3.31725C16.2327 8.13315 12.8923 12.9464 9.54904 17.7571C8.95882 18.608 8.15149 19.0058 7.05492 18.9956Z" fill="url(#paint0_linear_419_6003)"/>
<defs>
<linearGradient id="paint0_linear_419_6003" x1="9.99998" y1="19.0002" x2="9.99998" y2="0" gradientUnits="userSpaceOnUse">
<stop stop-color="#AAD4FF"/>
<stop offset="0.5" stop-color="#f44336"/>
<stop offset="1" stop-color="#f44336"/>
</linearGradient>
</defs>
</svg>
