<?xml version="1.0" encoding="UTF-8" standalone="no"?>
<!DOCTYPE svg PUBLIC "-//W3C//DTD SVG 1.1//EN" "http://www.w3.org/Graphics/SVG/1.1/DTD/svg11.dtd">
<svg width="100%" height="100%" viewBox="0 0 150 31" version="1.1" xmlns="http://www.w3.org/2000/svg" xmlns:xlink="http://www.w3.org/1999/xlink" xml:space="preserve" xmlns:serif="http://www.serif.com/" style="fill-rule:evenodd;clip-rule:evenodd;stroke-linejoin:round;stroke-miterlimit:2;">
    <g transform="matrix(1,0,0,1,0.998,6.08935)">
        <path d="M30.968,16.187C30.475,16.187 30.082,16.041 29.79,15.748C29.512,15.455 29.374,15.063 29.374,14.57L29.374,2.117C29.497,2.087 29.689,2.048 29.951,2.002C30.229,1.956 30.498,1.933 30.76,1.933C31.314,1.933 31.723,2.033 31.984,2.233C32.246,2.433 32.377,2.803 32.377,3.342L32.377,13.715L38.314,13.715C38.391,13.838 38.468,14.008 38.545,14.223C38.623,14.423 38.661,14.647 38.661,14.893C38.661,15.309 38.561,15.632 38.361,15.864C38.176,16.079 37.914,16.187 37.575,16.187L30.968,16.187ZM44.987,16.187C44.494,16.187 44.102,16.041 43.809,15.748C43.532,15.455 43.393,15.063 43.393,14.57L43.393,3.711C43.393,3.219 43.532,2.834 43.809,2.556C44.102,2.264 44.494,2.117 44.987,2.117L52.634,2.117C52.711,2.241 52.781,2.402 52.842,2.603C52.904,2.803 52.935,3.026 52.935,3.273C52.935,3.673 52.842,3.981 52.657,4.197C52.472,4.412 52.218,4.52 51.895,4.52L46.304,4.52L46.304,7.801L51.941,7.801C52.018,7.924 52.088,8.086 52.149,8.286C52.226,8.471 52.265,8.686 52.265,8.933C52.265,9.764 51.91,10.18 51.202,10.18L46.304,10.18L46.304,13.761L52.727,13.761C52.804,13.884 52.873,14.054 52.935,14.269C53.012,14.47 53.05,14.693 53.05,14.939C53.05,15.771 52.696,16.187 51.987,16.187L44.987,16.187ZM69.965,14.2C69.965,14.585 69.881,14.885 69.711,15.101C69.557,15.301 69.303,15.494 68.949,15.679C68.749,15.802 68.495,15.917 68.187,16.025C67.894,16.118 67.563,16.195 67.193,16.256C66.839,16.333 66.469,16.395 66.084,16.441C65.699,16.487 65.314,16.51 64.929,16.51C63.836,16.51 62.819,16.372 61.88,16.095C60.955,15.802 60.147,15.355 59.454,14.755C58.776,14.154 58.245,13.392 57.86,12.467C57.475,11.543 57.282,10.442 57.282,9.164C57.282,7.947 57.475,6.877 57.86,5.952C58.26,5.013 58.799,4.235 59.477,3.619C60.17,3.003 60.971,2.541 61.88,2.233C62.788,1.909 63.766,1.748 64.814,1.748C65.507,1.748 66.13,1.809 66.685,1.933C67.255,2.04 67.74,2.194 68.14,2.395C68.556,2.579 68.872,2.81 69.088,3.088C69.303,3.35 69.411,3.627 69.411,3.919C69.411,4.227 69.326,4.497 69.157,4.728C68.987,4.959 68.795,5.136 68.579,5.259C68.179,4.998 67.694,4.759 67.124,4.543C66.554,4.312 65.853,4.197 65.021,4.197C64.344,4.197 63.72,4.312 63.15,4.543C62.58,4.759 62.087,5.075 61.672,5.49C61.271,5.906 60.955,6.422 60.724,7.038C60.493,7.654 60.378,8.355 60.378,9.141C60.378,9.988 60.493,10.719 60.724,11.335C60.955,11.951 61.271,12.467 61.672,12.883C62.087,13.284 62.573,13.584 63.127,13.784C63.697,13.969 64.313,14.061 64.975,14.061C65.422,14.061 65.83,14.023 66.2,13.946C66.569,13.869 66.854,13.777 67.055,13.669L67.055,10.457L64.097,10.457C64.02,10.334 63.951,10.173 63.889,9.972C63.828,9.772 63.797,9.549 63.797,9.302C63.797,8.902 63.889,8.602 64.074,8.401C64.274,8.201 64.529,8.101 64.837,8.101L68.718,8.101C69.103,8.101 69.403,8.209 69.619,8.424C69.85,8.64 69.965,8.94 69.965,9.325L69.965,14.2ZM83.483,12.837L78.308,12.837C78.139,13.407 77.954,14 77.754,14.616C77.569,15.232 77.415,15.74 77.292,16.141C77.137,16.202 76.968,16.256 76.783,16.302C76.614,16.349 76.398,16.372 76.136,16.372C75.613,16.372 75.205,16.272 74.912,16.071C74.619,15.856 74.473,15.555 74.473,15.17C74.473,14.986 74.496,14.808 74.542,14.639C74.604,14.454 74.673,14.246 74.75,14.015C74.873,13.584 75.035,13.068 75.235,12.467C75.451,11.851 75.674,11.189 75.905,10.48C76.152,9.757 76.414,9.017 76.691,8.263C76.968,7.493 77.23,6.753 77.476,6.045C77.738,5.321 77.985,4.651 78.216,4.035C78.462,3.403 78.67,2.864 78.839,2.418C79.04,2.31 79.332,2.202 79.717,2.094C80.118,1.986 80.518,1.933 80.919,1.933C81.458,1.933 81.951,2.017 82.397,2.187C82.844,2.341 83.129,2.595 83.252,2.949C83.56,3.796 83.899,4.774 84.269,5.883C84.638,6.977 85.008,8.109 85.377,9.279C85.762,10.45 86.132,11.597 86.486,12.722C86.841,13.846 87.156,14.855 87.434,15.748C87.28,15.917 87.064,16.056 86.787,16.164C86.525,16.287 86.209,16.349 85.839,16.349C85.3,16.349 84.915,16.256 84.684,16.071C84.469,15.871 84.299,15.563 84.176,15.147L83.483,12.837ZM80.896,4.566C80.757,4.951 80.603,5.383 80.433,5.86C80.279,6.337 80.11,6.838 79.925,7.362C79.756,7.87 79.579,8.394 79.394,8.933C79.209,9.456 79.032,9.972 78.862,10.48L82.882,10.48L81.011,4.566L80.896,4.566ZM93.656,16.187C93.163,16.187 92.771,16.041 92.478,15.748C92.201,15.455 92.062,15.063 92.062,14.57L92.062,2.117C92.185,2.087 92.378,2.048 92.64,2.002C92.917,1.956 93.187,1.933 93.448,1.933C94.003,1.933 94.411,2.033 94.673,2.233C94.935,2.433 95.066,2.803 95.066,3.342L95.066,13.715L101.003,13.715C101.08,13.838 101.157,14.008 101.234,14.223C101.311,14.423 101.349,14.647 101.349,14.893C101.349,15.309 101.249,15.632 101.049,15.864C100.864,16.079 100.602,16.187 100.264,16.187L93.656,16.187Z" style="fill:rgb(11,39,88);fill-rule:nonzero;"/>
    </g>
    <g transform="matrix(1,0,0,1,0.998,6.08935)">
        <path d="M105.943,16.141C105.743,15.971 105.581,15.756 105.458,15.494C105.335,15.232 105.273,14.939 105.273,14.616C105.273,14.308 105.342,14.008 105.481,13.715C105.635,13.422 105.82,13.137 106.035,12.86L112.504,4.566L105.781,4.566C105.704,4.428 105.627,4.258 105.55,4.058C105.489,3.858 105.458,3.627 105.458,3.365C105.458,2.934 105.55,2.61 105.735,2.395C105.935,2.179 106.213,2.071 106.567,2.071L115.415,2.071C115.908,2.487 116.154,3.011 116.154,3.642C116.154,3.95 116.085,4.243 115.947,4.52C115.823,4.797 115.654,5.075 115.438,5.352L108.946,13.669L115.97,13.669C116.047,13.807 116.124,13.977 116.201,14.177C116.278,14.377 116.316,14.608 116.316,14.87C116.316,15.301 116.216,15.625 116.016,15.84C115.831,16.041 115.569,16.141 115.23,16.141L105.943,16.141ZM122.891,16.187C122.398,16.187 122.005,16.041 121.713,15.748C121.436,15.455 121.297,15.063 121.297,14.57L121.297,3.711C121.297,3.219 121.436,2.834 121.713,2.556C122.005,2.264 122.398,2.117 122.891,2.117L130.538,2.117C130.615,2.241 130.684,2.402 130.746,2.603C130.808,2.803 130.838,3.026 130.838,3.273C130.838,3.673 130.746,3.981 130.561,4.197C130.376,4.412 130.122,4.52 129.799,4.52L124.208,4.52L124.208,7.801L129.845,7.801C129.922,7.924 129.991,8.086 130.053,8.286C130.13,8.471 130.168,8.686 130.168,8.933C130.168,9.764 129.814,10.18 129.106,10.18L124.208,10.18L124.208,13.761L130.63,13.761C130.707,13.884 130.777,14.054 130.838,14.269C130.915,14.47 130.954,14.693 130.954,14.939C130.954,15.771 130.6,16.187 129.891,16.187L122.891,16.187ZM137.631,16.302C137.062,16.302 136.661,16.202 136.43,16.002C136.199,15.786 136.084,15.432 136.084,14.939L136.084,2.626C136.253,2.41 136.499,2.241 136.823,2.117C137.162,1.994 137.531,1.933 137.932,1.933C138.409,1.933 138.833,2.017 139.202,2.187C139.587,2.356 139.926,2.695 140.219,3.203L143.546,9.187C143.854,9.741 144.146,10.319 144.424,10.92C144.716,11.505 144.97,12.044 145.186,12.537L145.278,12.514C145.201,11.605 145.147,10.727 145.117,9.88C145.101,9.017 145.094,8.17 145.094,7.339L145.094,2.094C145.217,2.063 145.402,2.033 145.648,2.002C145.91,1.956 146.172,1.933 146.434,1.933C147.003,1.933 147.404,2.04 147.635,2.256C147.881,2.456 148.004,2.803 148.004,3.296L148.004,15.771C147.835,15.941 147.589,16.071 147.265,16.164C146.957,16.256 146.588,16.302 146.156,16.302C145.694,16.302 145.271,16.225 144.886,16.071C144.516,15.902 144.185,15.563 143.892,15.055L140.565,9.071C140.257,8.532 139.957,7.962 139.664,7.362C139.387,6.746 139.141,6.191 138.925,5.698L138.787,5.721C138.864,6.568 138.91,7.439 138.925,8.332C138.956,9.225 138.971,10.072 138.971,10.873L138.971,16.118C138.848,16.148 138.663,16.187 138.417,16.233C138.17,16.279 137.909,16.302 137.631,16.302Z" style="fill:url(#_Linear1);fill-rule:nonzero;"/>
    </g>
    <g transform="matrix(1,0,0,1,0.998,6.08935)">
        <path d="M15.898,18.223C15.957,18.14 16.01,18.052 16.055,17.96L15.898,18.223Z" style="fill:white;fill-rule:nonzero;"/>
    </g>
    <g transform="matrix(1,0,0,1,0.998,6.08935)">
        <path d="M15.762,14.606L8.418,14.606L8.067,15.162C7.895,15.498 7.798,15.868 7.784,16.246C7.769,16.623 7.838,16.999 7.984,17.348C8.13,17.696 8.351,18.008 8.63,18.262C8.91,18.517 9.241,18.707 9.602,18.819L14.282,18.819C15.476,18.819 15.898,18.223 15.898,18.223L16.055,17.96C16.316,17.445 16.722,16.214 15.762,14.606Z" style="fill:url(#_Linear2);fill-rule:nonzero;"/>
    </g>
    <g transform="matrix(1,0,0,1,0.998,6.08935)">
        <path d="M16.065,17.96L17.172,16.116L16.544,14.606L15.777,14.606C16.722,16.214 16.316,17.445 16.065,17.96Z" style="fill:white;fill-rule:nonzero;"/>
    </g>
    <g transform="matrix(1,0,0,1,0.998,6.08935)">
        <path d="M14.984,6.566L13.73,8.69C13.331,9.368 13.177,10.162 13.294,10.94C13.411,11.718 13.791,12.432 14.372,12.962C14.911,13.439 15.378,13.993 15.756,14.606C16.716,16.214 16.31,17.445 16.049,17.952C16.003,18.043 15.951,18.132 15.892,18.215C22.637,13.694 14.984,6.566 14.984,6.566Z" style="fill:url(#_Linear3);fill-rule:nonzero;"/>
    </g>
    <g transform="matrix(1,0,0,1,0.998,6.08935)">
        <path d="M7.162,0.002L3.222,0.002C2.028,0.002 1.608,0.6 1.608,0.6L1.449,0.861C1.188,1.376 0.784,2.607 1.742,4.207L9.198,4.207L9.351,3.965C9.596,3.573 9.732,3.123 9.745,2.661C9.757,2.2 9.646,1.743 9.423,1.339C9.199,0.935 8.872,0.597 8.474,0.362C8.077,0.127 7.624,0.003 7.162,0.002Z" style="fill:url(#_Linear4);fill-rule:nonzero;"/>
    </g>
    <g transform="matrix(1,0,0,1,0.998,6.08935)">
        <path d="M8.067,15.162L8.418,14.606L5.136,14.606L5.136,18.817L9.602,18.817C9.242,18.705 8.91,18.515 8.631,18.26C8.352,18.006 8.131,17.694 7.985,17.346C7.839,16.998 7.771,16.622 7.785,16.245C7.799,15.868 7.895,15.498 8.067,15.162Z" style="fill:white;fill-rule:nonzero;"/>
    </g>
    <g transform="matrix(1,0,0,1,0.998,6.08935)">
        <path d="M13.625,0L7.162,0C7.625,-0 8.08,0.124 8.479,0.359C8.879,0.595 9.207,0.933 9.431,1.339C9.655,1.745 9.765,2.204 9.751,2.667C9.737,3.13 9.599,3.581 9.351,3.973L9.198,4.215L13.625,4.215L13.625,0Z" style="fill:white;fill-rule:nonzero;"/>
    </g>
    <g transform="matrix(1,0,0,1,0.998,6.08935)">
        <path d="M8.067,15.162L8.418,14.606L17.619,0.002L7.164,0.002C7.627,0.002 8.082,0.126 8.482,0.361C8.881,0.597 9.209,0.935 9.433,1.341C9.657,1.747 9.767,2.206 9.753,2.669C9.739,3.132 9.601,3.583 9.353,3.975L9.201,4.218L0,18.821L9.6,18.821C9.239,18.709 8.907,18.518 8.628,18.264C8.349,18.009 8.128,17.697 7.982,17.348C7.836,17 7.768,16.623 7.783,16.246C7.797,15.868 7.895,15.498 8.067,15.162Z" style="fill:url(#_Linear5);fill-rule:nonzero;"/>
    </g>
    <defs>
        <linearGradient id="_Linear1" x1="0" y1="0" x2="1" y2="0" gradientUnits="userSpaceOnUse" gradientTransform="matrix(1.15247e-15,18.8213,-18.8213,1.15247e-15,88.6882,1.14069)"><stop offset="0" style="stop-color:rgb(168,211,255);stop-opacity:1"/><stop offset="1" style="stop-color:rgb(40,111,235);stop-opacity:1"/></linearGradient>
        <linearGradient id="_Linear2" x1="0" y1="0" x2="1" y2="0" gradientUnits="userSpaceOnUse" gradientTransform="matrix(8.5732,0,0,8.5732,7.7389,16.7282)"><stop offset="0" style="stop-color:rgb(170,212,255);stop-opacity:1"/><stop offset="1" style="stop-color:rgb(40,111,235);stop-opacity:1"/></linearGradient>
        <linearGradient id="_Linear3" x1="0" y1="0" x2="1" y2="0" gradientUnits="userSpaceOnUse" gradientTransform="matrix(7.13298e-16,11.649,-11.649,7.13298e-16,15.9636,6.56586)"><stop offset="0" style="stop-color:rgb(40,111,235);stop-opacity:1"/><stop offset="1" style="stop-color:rgb(170,212,255);stop-opacity:1"/></linearGradient>
        <linearGradient id="_Linear4" x1="0" y1="0" x2="1" y2="0" gradientUnits="userSpaceOnUse" gradientTransform="matrix(-8.78229,1.07552e-15,-1.07552e-15,-8.78229,9.82991,2.091)"><stop offset="0" style="stop-color:rgb(40,111,235);stop-opacity:1"/><stop offset="1" style="stop-color:rgb(170,212,255);stop-opacity:1"/></linearGradient>
        <linearGradient id="_Linear5" x1="0" y1="0" x2="1" y2="0" gradientUnits="userSpaceOnUse" gradientTransform="matrix(9.20045,-17.5646,17.5646,9.20045,5.22965,18.8192)"><stop offset="0" style="stop-color:rgb(40,111,235);stop-opacity:1"/><stop offset="1" style="stop-color:rgb(170,212,255);stop-opacity:1"/></linearGradient>
    </defs>
</svg>
