<svg width="20" height="20" viewBox="0 0 20 20" fill="none" xmlns="http://www.w3.org/2000/svg">
<path d="M16.977 16.9774V11.3001C16.977 10.3681 16.6077 9.4743 15.9502 8.81527C15.2927 8.15625 14.4009 7.78601 13.4711 7.78601C12.9771 7.7951 12.494 7.93232 12.0687 8.18428C11.6314 8.42401 11.2616 8.77051 10.9935 9.19166V7.97343H8.00169V16.9774H10.9935V11.6828C10.9884 11.287 11.1396 10.9052 11.4142 10.6207C11.5489 10.4771 11.712 10.3634 11.8931 10.2867C12.0743 10.21 12.2694 10.1722 12.466 10.1756C12.6658 10.1741 12.8639 10.2127 13.0485 10.2891C13.2332 10.3656 13.4007 10.4783 13.5412 10.6207C13.6839 10.7578 13.797 10.9228 13.8734 11.1055C13.9497 11.2882 13.9879 11.4847 13.9853 11.6828V16.9774H16.977ZM4.51129 6.28666C4.74896 6.2905 4.985 6.24692 5.20571 6.15843C5.42641 6.06995 5.62738 5.93833 5.79684 5.77126C5.97125 5.61099 6.10942 5.41519 6.20213 5.197C6.29485 4.97881 6.33998 4.74327 6.33443 4.50618C6.33919 4.26084 6.2924 4.01725 6.19709 3.79122C6.10179 3.5652 5.96009 3.3618 5.78124 3.19424C5.61538 3.02074 5.41561 2.88336 5.19444 2.79065C4.97326 2.69795 4.7354 2.65191 4.49569 2.65541C4.25598 2.65191 4.01812 2.69795 3.79695 2.79065C3.57577 2.88336 3.37605 3.02074 3.21019 3.19424C3.03709 3.36049 2.9 3.5607 2.80751 3.78239C2.71502 4.00407 2.66911 4.24248 2.6726 4.48275C2.66903 4.71956 2.71501 4.9545 2.8076 5.1724C2.9002 5.3903 3.03736 5.58632 3.21019 5.74783C3.37471 5.92315 3.57243 6.06387 3.79181 6.16175C4.0112 6.25963 4.24786 6.31271 4.48794 6.31789L4.51129 6.28666ZM6.00717 16.9774V7.97343H3.01541V16.9774H6.00717ZM17.9821 0.000309493C18.2488 -0.00445191 18.5138 0.0457705 18.7604 0.147863C19.007 0.249955 19.23 0.401736 19.4157 0.593799C19.601 0.772805 19.7483 0.987533 19.8487 1.22507C19.9491 1.4626 20.0006 1.71804 20 1.97602V18.0316C20.0006 18.2896 19.9491 18.545 19.8487 18.7825C19.7483 19.0201 19.601 19.2348 19.4157 19.4138C19.2291 19.6041 19.0056 19.7542 18.7591 19.8549C18.5126 19.9556 18.2482 20.0048 17.9821 19.9995H2.01033C1.74524 20.0056 1.4818 19.9567 1.23645 19.8559C0.9911 19.7551 0.769167 19.6046 0.584593 19.4138C0.39627 19.2371 0.24694 19.0228 0.146296 18.7847C0.0456524 18.5467 -0.0040717 18.2901 0.00026061 18.0316V1.99945C-0.0040717 1.74092 0.0456524 1.48436 0.146296 1.24629C0.24694 1.00822 0.39627 0.793926 0.584593 0.617226C0.76878 0.425382 0.990422 0.273667 1.23574 0.171551C1.48105 0.0694357 1.74474 0.019117 2.01033 0.0237359L17.9821 0.000309493Z" fill="white"/>
</svg>
