<svg xmlns="http://www.w3.org/2000/svg" width="19" height="31" viewBox="0 0 19 31"><g><g><path fill="#f95258" d="M13.924 12.589c-.53 0-.959-.412-.959-.919 0-.507.43-.918.959-.918.53 0 .959.411.959.918 0 .507-.43.919-.959.919zm3.452-3.026c-.689-.457-1.02-1.034-.98-1.871.058-1.228.05-2.461.001-3.69-.035-.888-.229-1.749-.786-2.512-.454-.624-1.099-.938-1.786-1.247-.796-.358-1.573-.248-2.475-.127 0 .662.016 1.272-.004 1.882-.02.589.093 1.217-.456 1.814-.218-.417-.367-.759-.566-1.072-.745-1.173-2.003-1.458-3.28-1.652-.611-.093-.957.24-.978.845-.024.678-.001 1.357-.015 2.036-.005.24-.058.479-.093.753-.516-.097-.755-.358-.954-.715C4.2 2.567 2.488 2.01.8 2.499c-.024.18-.073.385-.074.59-.003 1.485.001 2.97.009 4.454.005 1.018.523 1.8 1.386 2.305.627.367 1.373.545 2.054.834.21.09.38.266.66.468-.605.345-1.098.573-1.527.882C1.762 13.142.695 14.489.71 16.477c.037 4.56.01 9.121.014 13.681 0 .263.06.527.091.793.21.02.348.068.468.04.55-.125 1.09-.305 1.644-.405 1.456-.266 2.72-.97 3.97-1.655 1.63-.893 3.12-2.005 4.38-3.353 1.074-1.148 2.141-2.31 2.845-3.725.424-.852.911-1.679 1.283-2.551.281-.659.489-1.36.612-2.062.191-1.086.26-2.19.432-3.28.05-.313.229-.637.435-.891.637-.783 1.316-1.535 2.055-2.388-.577-.414-1.058-.783-1.564-1.118z"/></g></g></svg>