<?xml version="1.0" encoding="UTF-8" standalone="no"?>
<!DOCTYPE svg PUBLIC "-//W3C//DTD SVG 1.1//EN" "http://www.w3.org/Graphics/SVG/1.1/DTD/svg11.dtd">
<svg width="100%" height="100%" viewBox="0 0 150 31" version="1.1" xmlns="http://www.w3.org/2000/svg" xmlns:xlink="http://www.w3.org/1999/xlink" xml:space="preserve" xmlns:serif="http://www.serif.com/" style="fill-rule:evenodd;clip-rule:evenodd;stroke-linejoin:round;stroke-miterlimit:2;">
    <g>
        <path d="M13.924,12.589C13.394,12.589 12.965,12.177 12.965,11.67C12.965,11.163 13.395,10.752 13.924,10.752C14.454,10.752 14.883,11.163 14.883,11.67C14.883,12.177 14.453,12.589 13.924,12.589ZM17.376,9.563C16.687,9.106 16.356,8.529 16.396,7.692C16.454,6.464 16.446,5.231 16.397,4.002C16.362,3.114 16.168,2.253 15.611,1.49C15.157,0.866 14.512,0.552 13.825,0.243C13.029,-0.115 12.252,-0.005 11.35,0.116C11.35,0.778 11.366,1.388 11.346,1.998C11.326,2.587 11.439,3.215 10.89,3.812C10.672,3.395 10.523,3.053 10.324,2.74C9.579,1.567 8.321,1.282 7.044,1.088C6.433,0.995 6.087,1.328 6.066,1.933C6.042,2.611 6.065,3.29 6.051,3.969C6.046,4.209 5.993,4.448 5.958,4.722C5.442,4.625 5.203,4.364 5.004,4.007C4.2,2.567 2.488,2.01 0.8,2.499C0.776,2.679 0.727,2.884 0.726,3.089C0.723,4.574 0.727,6.059 0.735,7.543C0.74,8.561 1.258,9.343 2.121,9.848C2.748,10.215 3.494,10.393 4.175,10.682C4.385,10.772 4.555,10.948 4.835,11.15C4.23,11.495 3.737,11.723 3.308,12.032C1.762,13.142 0.695,14.489 0.71,16.477C0.747,21.037 0.72,25.598 0.724,30.158C0.724,30.421 0.784,30.685 0.815,30.951C1.025,30.971 1.163,31.019 1.283,30.991C1.833,30.866 2.373,30.686 2.927,30.586C4.383,30.32 5.647,29.616 6.897,28.931C8.527,28.038 10.017,26.926 11.277,25.578C12.351,24.43 13.418,23.268 14.122,21.853C14.546,21.001 15.033,20.174 15.405,19.302C15.686,18.643 15.894,17.942 16.017,17.24C16.208,16.154 16.277,15.05 16.449,13.96C16.499,13.647 16.678,13.323 16.884,13.069C17.521,12.286 18.2,11.534 18.939,10.681C18.362,10.267 17.881,9.898 17.375,9.563L17.376,9.563Z" style="fill:rgb(249,82,88);fill-rule:nonzero;"/>
    </g>
    <g transform="matrix(1,0,0,1,2.28217,6.36804)">
        <g transform="matrix(15.4167,0,0,15.4167,20.0165,14.1726)">
            <path d="M0.062,-0.702L0.062,-0L0.457,-0L0.457,-0.132L0.233,-0.132L0.233,-0.702L0.062,-0.702Z" style="fill:rgb(54,70,151);fill-rule:nonzero;"/>
        </g>
        <g transform="matrix(15.4167,0,0,15.4167,27.3703,14.1726)">
            <path d="M0.492,-0.702L0.062,-0.702L0.062,-0L0.492,-0L0.492,-0.137L0.233,-0.137L0.233,-0.291L0.462,-0.291L0.462,-0.423L0.233,-0.423L0.233,-0.565L0.492,-0.565L0.492,-0.702Z" style="fill:rgb(54,70,151);fill-rule:nonzero;"/>
        </g>
        <g transform="matrix(15.4167,0,0,15.4167,35.7107,14.1726)">
            <path d="M0.572,-0.209C0.572,-0.444 0.225,-0.389 0.225,-0.511C0.225,-0.555 0.256,-0.576 0.297,-0.575C0.343,-0.574 0.375,-0.547 0.378,-0.502L0.563,-0.502C0.556,-0.636 0.453,-0.712 0.3,-0.712C0.153,-0.712 0.044,-0.638 0.044,-0.505C0.042,-0.256 0.393,-0.326 0.393,-0.196C0.393,-0.155 0.361,-0.13 0.311,-0.13C0.263,-0.13 0.229,-0.156 0.224,-0.21L0.042,-0.21C0.047,-0.068 0.165,0.007 0.316,0.007C0.48,0.007 0.572,-0.091 0.572,-0.209Z" style="fill:rgb(54,70,151);fill-rule:nonzero;"/>
        </g>
        <g transform="matrix(15.4167,0,0,15.4167,53.3628,14.1726)">
            <path d="M0.024,-0.565L0.21,-0.565L0.21,-0L0.381,-0L0.381,-0.565L0.567,-0.565L0.567,-0.702L0.024,-0.702L0.024,-0.565Z" style="fill:rgb(54,70,151);fill-rule:nonzero;"/>
        </g>
        <g transform="matrix(15.4167,0,0,15.4167,62.474,14.1726)">
            <path d="M0.433,-0.474C0.433,-0.419 0.403,-0.386 0.339,-0.386L0.233,-0.386L0.233,-0.56L0.339,-0.56C0.403,-0.56 0.433,-0.526 0.433,-0.474ZM0.062,-0.702L0.062,-0L0.233,-0L0.233,-0.265L0.274,-0.265L0.42,-0L0.613,-0L0.451,-0.278C0.559,-0.31 0.607,-0.393 0.607,-0.481C0.607,-0.603 0.521,-0.702 0.349,-0.702L0.062,-0.702Z" style="fill:rgb(54,70,151);fill-rule:nonzero;"/>
        </g>
        <g transform="matrix(15.4167,0,0,15.4167,72.5257,14.1726)">
            <rect x="0.062" y="-0.702" width="0.171" height="0.702" style="fill:rgb(54,70,151);fill-rule:nonzero;"/>
        </g>
        <g transform="matrix(15.4167,0,0,15.4167,77.0736,14.1726)">
            <path d="M0.033,-0.352C0.033,-0.142 0.179,0.005 0.386,0.005C0.553,0.005 0.679,-0.088 0.719,-0.24L0.531,-0.24C0.502,-0.18 0.449,-0.15 0.384,-0.15C0.279,-0.15 0.207,-0.228 0.207,-0.352C0.207,-0.476 0.279,-0.554 0.384,-0.554C0.449,-0.554 0.502,-0.524 0.531,-0.464L0.719,-0.464C0.679,-0.616 0.553,-0.71 0.386,-0.71C0.179,-0.71 0.033,-0.562 0.033,-0.352Z" style="fill:rgb(54,70,151);fill-rule:nonzero;"/>
        </g>
        <g transform="matrix(15.4167,0,0,15.4167,88.8211,14.1726)">
            <path d="M0.753,-0.353C0.753,-0.564 0.594,-0.712 0.394,-0.712C0.195,-0.712 0.033,-0.564 0.033,-0.353C0.033,-0.142 0.195,0.007 0.394,0.007C0.593,0.007 0.753,-0.142 0.753,-0.353ZM0.208,-0.353C0.208,-0.478 0.28,-0.557 0.394,-0.557C0.506,-0.557 0.579,-0.478 0.579,-0.353C0.579,-0.23 0.506,-0.149 0.394,-0.149C0.28,-0.149 0.208,-0.23 0.208,-0.353Z" style="fill:rgb(54,70,151);fill-rule:nonzero;"/>
        </g>
        <g transform="matrix(15.4167,0,0,15.4167,100.939,14.1726)">
            <path d="M0.062,-0.702L0.062,-0L0.457,-0L0.457,-0.132L0.233,-0.132L0.233,-0.702L0.062,-0.702Z" style="fill:rgb(54,70,151);fill-rule:nonzero;"/>
        </g>
        <g transform="matrix(15.4167,0,0,15.4167,108.292,14.1726)">
            <path d="M0.753,-0.353C0.753,-0.564 0.594,-0.712 0.394,-0.712C0.195,-0.712 0.033,-0.564 0.033,-0.353C0.033,-0.142 0.195,0.007 0.394,0.007C0.593,0.007 0.753,-0.142 0.753,-0.353ZM0.208,-0.353C0.208,-0.478 0.28,-0.557 0.394,-0.557C0.506,-0.557 0.579,-0.478 0.579,-0.353C0.579,-0.23 0.506,-0.149 0.394,-0.149C0.28,-0.149 0.208,-0.23 0.208,-0.353Z" style="fill:rgb(54,70,151);fill-rule:nonzero;"/>
        </g>
        <g transform="matrix(15.4167,0,0,15.4167,120.41,14.1726)">
            <path d="M0.433,-0.474C0.433,-0.419 0.403,-0.386 0.339,-0.386L0.233,-0.386L0.233,-0.56L0.339,-0.56C0.403,-0.56 0.433,-0.526 0.433,-0.474ZM0.062,-0.702L0.062,-0L0.233,-0L0.233,-0.265L0.274,-0.265L0.42,-0L0.613,-0L0.451,-0.278C0.559,-0.31 0.607,-0.393 0.607,-0.481C0.607,-0.603 0.521,-0.702 0.349,-0.702L0.062,-0.702Z" style="fill:rgb(54,70,151);fill-rule:nonzero;"/>
        </g>
        <g transform="matrix(15.4167,0,0,15.4167,130.462,14.1726)">
            <path d="M0.492,-0.702L0.062,-0.702L0.062,-0L0.492,-0L0.492,-0.137L0.233,-0.137L0.233,-0.291L0.462,-0.291L0.462,-0.423L0.233,-0.423L0.233,-0.565L0.492,-0.565L0.492,-0.702Z" style="fill:rgb(54,70,151);fill-rule:nonzero;"/>
        </g>
        <g transform="matrix(15.4167,0,0,15.4167,138.802,14.1726)">
            <path d="M0.572,-0.209C0.572,-0.444 0.225,-0.389 0.225,-0.511C0.225,-0.555 0.256,-0.576 0.297,-0.575C0.343,-0.574 0.375,-0.547 0.378,-0.502L0.563,-0.502C0.556,-0.636 0.453,-0.712 0.3,-0.712C0.153,-0.712 0.044,-0.638 0.044,-0.505C0.042,-0.256 0.393,-0.326 0.393,-0.196C0.393,-0.155 0.361,-0.13 0.311,-0.13C0.263,-0.13 0.229,-0.156 0.224,-0.21L0.042,-0.21C0.047,-0.068 0.165,0.007 0.316,0.007C0.48,0.007 0.572,-0.091 0.572,-0.209Z" style="fill:rgb(54,70,151);fill-rule:nonzero;"/>
        </g>
    </g>
</svg>
