<?xml version="1.0" encoding="UTF-8" standalone="no"?>
<!DOCTYPE svg PUBLIC "-//W3C//DTD SVG 1.1//EN" "http://www.w3.org/Graphics/SVG/1.1/DTD/svg11.dtd">
<svg width="100%" height="100%" viewBox="0 0 200 41" version="1.1" xmlns="http://www.w3.org/2000/svg" xmlns:xlink="http://www.w3.org/1999/xlink" xml:space="preserve" xmlns:serif="http://www.serif.com/" style="fill-rule:evenodd;clip-rule:evenodd;stroke-linejoin:round;stroke-miterlimit:2;">
    <g transform="matrix(1,0,0,1,1.3305,7.9524)">
        <path d="M41.291,22.583C40.633,22.583 40.11,22.388 39.719,21.997C39.35,21.607 39.165,21.084 39.165,20.426L39.165,3.823C39.329,3.782 39.586,3.731 39.935,3.669C40.305,3.608 40.664,3.577 41.013,3.577C41.753,3.577 42.297,3.71 42.646,3.977C42.995,4.244 43.17,4.737 43.17,5.456L43.17,19.287L51.086,19.287C51.189,19.451 51.291,19.677 51.394,19.964C51.497,20.231 51.548,20.529 51.548,20.858C51.548,21.412 51.414,21.843 51.148,22.151C50.901,22.439 50.552,22.583 50.1,22.583L41.291,22.583ZM59.983,22.583C59.326,22.583 58.802,22.388 58.412,21.997C58.042,21.607 57.858,21.084 57.858,20.426L57.858,5.949C57.858,5.292 58.042,4.778 58.412,4.409C58.802,4.018 59.326,3.823 59.983,3.823L70.179,3.823C70.282,3.988 70.374,4.203 70.456,4.47C70.539,4.737 70.58,5.035 70.58,5.363C70.58,5.897 70.456,6.308 70.21,6.596C69.964,6.883 69.625,7.027 69.193,7.027L61.739,7.027L61.739,11.401L69.255,11.401C69.358,11.565 69.45,11.781 69.532,12.048C69.635,12.294 69.686,12.582 69.686,12.91C69.686,14.019 69.214,14.574 68.269,14.574L61.739,14.574L61.739,19.348L70.302,19.348C70.405,19.513 70.497,19.738 70.58,20.026C70.682,20.293 70.734,20.591 70.734,20.919C70.734,22.028 70.261,22.583 69.317,22.583L59.983,22.583ZM93.287,19.934C93.287,20.447 93.174,20.847 92.948,21.135C92.743,21.402 92.404,21.659 91.932,21.905C91.665,22.069 91.326,22.223 90.915,22.367C90.525,22.49 90.084,22.593 89.591,22.675C89.119,22.778 88.626,22.86 88.112,22.921C87.599,22.983 87.086,23.014 86.572,23.014C85.114,23.014 83.759,22.829 82.506,22.459C81.274,22.069 80.196,21.474 79.272,20.673C78.368,19.872 77.66,18.855 77.146,17.623C76.633,16.391 76.376,14.923 76.376,13.218C76.376,11.596 76.633,10.169 77.146,8.937C77.68,7.684 78.399,6.647 79.303,5.825C80.227,5.004 81.294,4.388 82.506,3.977C83.718,3.546 85.022,3.33 86.418,3.33C87.342,3.33 88.174,3.413 88.913,3.577C89.673,3.721 90.32,3.926 90.854,4.193C91.408,4.439 91.829,4.747 92.117,5.117C92.404,5.466 92.548,5.836 92.548,6.226C92.548,6.637 92.435,6.996 92.209,7.304C91.983,7.612 91.727,7.848 91.439,8.013C90.905,7.663 90.258,7.345 89.499,7.058C88.739,6.75 87.804,6.596 86.695,6.596C85.792,6.596 84.96,6.75 84.2,7.058C83.44,7.345 82.783,7.766 82.229,8.321C81.695,8.875 81.274,9.563 80.966,10.384C80.658,11.206 80.504,12.14 80.504,13.188C80.504,14.317 80.658,15.292 80.966,16.114C81.274,16.935 81.695,17.623 82.229,18.178C82.783,18.712 83.43,19.112 84.169,19.379C84.929,19.626 85.751,19.749 86.634,19.749C87.229,19.749 87.774,19.697 88.266,19.595C88.759,19.492 89.139,19.369 89.406,19.225L89.406,14.943L85.463,14.943C85.361,14.779 85.268,14.563 85.186,14.297C85.104,14.03 85.063,13.732 85.063,13.403C85.063,12.869 85.186,12.469 85.432,12.202C85.699,11.935 86.038,11.801 86.449,11.801L91.624,11.801C92.137,11.801 92.538,11.945 92.825,12.233C93.133,12.52 93.287,12.921 93.287,13.434L93.287,19.934ZM111.311,18.116L104.411,18.116C104.185,18.876 103.938,19.667 103.671,20.488C103.425,21.309 103.22,21.987 103.055,22.521C102.85,22.603 102.624,22.675 102.378,22.737C102.152,22.798 101.864,22.829 101.515,22.829C100.817,22.829 100.273,22.696 99.883,22.429C99.492,22.141 99.297,21.741 99.297,21.227C99.297,20.981 99.328,20.745 99.39,20.519C99.472,20.272 99.564,19.995 99.667,19.687C99.831,19.112 100.047,18.424 100.314,17.623C100.601,16.802 100.899,15.919 101.207,14.974C101.536,14.009 101.885,13.023 102.254,12.017C102.624,10.99 102.973,10.005 103.302,9.06C103.651,8.095 103.979,7.201 104.288,6.38C104.616,5.538 104.893,4.819 105.119,4.224C105.386,4.08 105.776,3.936 106.29,3.792C106.824,3.649 107.358,3.577 107.892,3.577C108.61,3.577 109.267,3.69 109.863,3.916C110.458,4.121 110.838,4.46 111.003,4.932C111.413,6.062 111.865,7.366 112.358,8.844C112.851,10.302 113.344,11.812 113.837,13.372C114.35,14.933 114.843,16.463 115.315,17.962C115.787,19.461 116.208,20.806 116.578,21.997C116.373,22.223 116.085,22.408 115.716,22.552C115.367,22.716 114.946,22.798 114.453,22.798C113.734,22.798 113.221,22.675 112.913,22.429C112.625,22.162 112.399,21.751 112.235,21.196L111.311,18.116ZM107.861,7.088C107.676,7.602 107.471,8.177 107.245,8.813C107.039,9.45 106.813,10.117 106.567,10.816C106.341,11.493 106.105,12.192 105.858,12.91C105.612,13.609 105.376,14.297 105.15,14.974L110.51,14.974L108.015,7.088L107.861,7.088ZM124.875,22.583C124.218,22.583 123.694,22.388 123.304,21.997C122.934,21.607 122.75,21.084 122.75,20.426L122.75,3.823C122.914,3.782 123.171,3.731 123.52,3.669C123.889,3.608 124.249,3.577 124.598,3.577C125.337,3.577 125.881,3.71 126.23,3.977C126.58,4.244 126.754,4.737 126.754,5.456L126.754,19.287L134.671,19.287C134.773,19.451 134.876,19.677 134.979,19.964C135.081,20.231 135.133,20.529 135.133,20.858C135.133,21.412 134.999,21.843 134.732,22.151C134.486,22.439 134.137,22.583 133.685,22.583L124.875,22.583Z" style="fill:white;fill-rule:nonzero;"/>
    </g>
    <g transform="matrix(1,0,0,1,1.3305,7.9524)">
        <path d="M141.258,22.521C140.991,22.295 140.775,22.008 140.611,21.659C140.446,21.309 140.364,20.919 140.364,20.488C140.364,20.077 140.457,19.677 140.641,19.287C140.847,18.896 141.093,18.517 141.381,18.147L150.006,7.088L141.042,7.088C140.939,6.904 140.837,6.678 140.734,6.411C140.652,6.144 140.611,5.836 140.611,5.487C140.611,4.912 140.734,4.48 140.98,4.193C141.247,3.905 141.617,3.762 142.089,3.762L153.887,3.762C154.544,4.316 154.873,5.014 154.873,5.856C154.873,6.267 154.78,6.657 154.595,7.027C154.431,7.396 154.205,7.766 153.918,8.136L145.262,19.225L154.626,19.225C154.729,19.41 154.832,19.636 154.934,19.903C155.037,20.17 155.088,20.478 155.088,20.827C155.088,21.402 154.955,21.833 154.688,22.121C154.441,22.388 154.092,22.521 153.641,22.521L141.258,22.521ZM163.855,22.583C163.198,22.583 162.674,22.388 162.284,21.997C161.914,21.607 161.729,21.084 161.729,20.426L161.729,5.949C161.729,5.292 161.914,4.778 162.284,4.409C162.674,4.018 163.198,3.823 163.855,3.823L174.051,3.823C174.153,3.988 174.246,4.203 174.328,4.47C174.41,4.737 174.451,5.035 174.451,5.363C174.451,5.897 174.328,6.308 174.082,6.596C173.835,6.883 173.496,7.027 173.065,7.027L165.611,7.027L165.611,11.401L173.127,11.401C173.229,11.565 173.322,11.781 173.404,12.048C173.507,12.294 173.558,12.582 173.558,12.91C173.558,14.019 173.086,14.574 172.141,14.574L165.611,14.574L165.611,19.348L174.174,19.348C174.277,19.513 174.369,19.738 174.451,20.026C174.554,20.293 174.605,20.591 174.605,20.919C174.605,22.028 174.133,22.583 173.188,22.583L163.855,22.583ZM183.509,22.737C182.749,22.737 182.215,22.603 181.907,22.336C181.599,22.049 181.445,21.576 181.445,20.919L181.445,4.501C181.671,4.213 181.999,3.988 182.431,3.823C182.882,3.659 183.375,3.577 183.909,3.577C184.546,3.577 185.11,3.69 185.603,3.916C186.117,4.142 186.568,4.593 186.959,5.271L191.394,13.249C191.805,13.988 192.195,14.759 192.565,15.559C192.955,16.34 193.294,17.059 193.581,17.716L193.705,17.685C193.602,16.473 193.53,15.303 193.489,14.173C193.468,13.023 193.458,11.894 193.458,10.785L193.458,3.792C193.622,3.751 193.869,3.71 194.197,3.669C194.547,3.608 194.896,3.577 195.245,3.577C196.005,3.577 196.539,3.721 196.847,4.008C197.175,4.275 197.339,4.737 197.339,5.394L197.339,22.028C197.114,22.254 196.785,22.429 196.354,22.552C195.943,22.675 195.45,22.737 194.875,22.737C194.259,22.737 193.694,22.634 193.181,22.429C192.688,22.203 192.247,21.751 191.856,21.073L187.421,13.095C187.01,12.376 186.61,11.617 186.219,10.816C185.85,9.994 185.521,9.255 185.234,8.598L185.049,8.629C185.151,9.758 185.213,10.918 185.234,12.109C185.275,13.301 185.295,14.43 185.295,15.498L185.295,22.49C185.131,22.531 184.885,22.583 184.556,22.644C184.227,22.706 183.878,22.737 183.509,22.737Z" style="fill:url(#_Linear1);fill-rule:nonzero;"/>
    </g>
    <g transform="matrix(1,0,0,1,1.3305,7.9524)">
        <path d="M21.197,24.298C21.276,24.186 21.346,24.069 21.406,23.946L21.197,24.298Z" style="fill:white;fill-rule:nonzero;"/>
    </g>
    <g transform="matrix(1,0,0,1,1.3305,7.9524)">
        <path d="M21.016,19.475L11.225,19.475L10.756,20.216C10.527,20.665 10.398,21.158 10.379,21.661C10.359,22.164 10.45,22.666 10.645,23.13C10.84,23.595 11.134,24.011 11.507,24.35C11.88,24.689 12.322,24.942 12.803,25.093L19.042,25.093C20.634,25.093 21.197,24.298 21.197,24.298L21.407,23.947C21.755,23.261 22.296,21.619 21.016,19.475Z" style="fill:url(#_Linear2);fill-rule:nonzero;"/>
    </g>
    <g transform="matrix(1,0,0,1,1.3305,7.9524)">
        <path d="M21.42,23.947L22.895,21.488L22.059,19.475L21.036,19.475C22.296,21.619 21.755,23.261 21.42,23.947Z" style="fill:white;fill-rule:nonzero;"/>
    </g>
    <g transform="matrix(1,0,0,1,1.3305,7.9524)">
        <path d="M19.979,8.754L18.306,11.587C17.774,12.491 17.569,13.55 17.725,14.587C17.881,15.624 18.388,16.575 19.162,17.283C19.882,17.919 20.504,18.657 21.008,19.474C22.287,21.618 21.746,23.261 21.398,23.935C21.338,24.058 21.268,24.175 21.189,24.287C30.183,18.259 19.979,8.754 19.979,8.754Z" style="fill:url(#_Linear3);fill-rule:nonzero;"/>
    </g>
    <g transform="matrix(1,0,0,1,1.3305,7.9524)">
        <path d="M9.549,0.003L4.296,0.003C2.705,0.003 2.144,0.8 2.144,0.8L1.932,1.149C1.584,1.835 1.046,3.477 2.323,5.61L12.265,5.61L12.468,5.286C12.795,4.764 12.976,4.164 12.993,3.549C13.01,2.933 12.862,2.324 12.564,1.785C12.266,1.246 11.83,0.797 11.299,0.483C10.769,0.17 10.165,0.004 9.549,0.003Z" style="fill:white;fill-rule:nonzero;"/>
    </g>
    <g transform="matrix(1,0,0,1,1.3305,7.9524)">
        <path d="M10.757,20.216L11.225,19.475L6.848,19.475L6.848,25.09L12.803,25.09C12.323,24.94 11.881,24.686 11.508,24.347C11.136,24.009 10.842,23.593 10.647,23.129C10.452,22.664 10.361,22.163 10.38,21.66C10.399,21.157 10.527,20.664 10.757,20.216Z" style="fill:white;fill-rule:nonzero;"/>
    </g>
    <g transform="matrix(1,0,0,1,1.3305,7.9524)">
        <path d="M18.167,0L9.549,0C10.167,-0 10.774,0.165 11.306,0.479C11.838,0.793 12.277,1.245 12.575,1.786C12.873,2.327 13.02,2.938 13.002,3.556C12.983,4.174 12.799,4.775 12.468,5.297L12.265,5.621L18.167,5.621L18.167,0Z" style="fill:white;fill-rule:nonzero;"/>
    </g>
    <g transform="matrix(1,0,0,1,1.3305,7.9524)">
        <path d="M10.756,20.216L11.225,19.475L23.492,0.003L9.552,0.003C10.17,0.002 10.777,0.168 11.309,0.482C11.841,0.796 12.279,1.247 12.577,1.789C12.875,2.33 13.023,2.941 13.004,3.559C12.986,4.177 12.801,4.778 12.471,5.3L12.267,5.624L0,25.095L12.8,25.095C12.319,24.945 11.877,24.691 11.504,24.352C11.131,24.013 10.838,23.596 10.643,23.131C10.448,22.666 10.357,22.165 10.377,21.661C10.397,21.158 10.526,20.664 10.756,20.216Z" style="fill:url(#_Linear4);fill-rule:nonzero;"/>
    </g>
    <defs>
        <linearGradient id="_Linear1" x1="0" y1="0" x2="1" y2="0" gradientUnits="userSpaceOnUse" gradientTransform="matrix(1.53663e-15,25.0951,-25.0951,1.53663e-15,118.251,1.521)"><stop offset="0" style="stop-color:white;stop-opacity:1"/><stop offset="1" style="stop-color:white;stop-opacity:1"/></linearGradient>
        <linearGradient id="_Linear2" x1="0" y1="0" x2="1" y2="0" gradientUnits="userSpaceOnUse" gradientTransform="matrix(11.431,0,0,11.431,10.3185,22.3045)"><stop offset="0" style="stop-color:white;stop-opacity:1"/><stop offset="1" style="stop-color:white;stop-opacity:1"/></linearGradient>
        <linearGradient id="_Linear3" x1="0" y1="0" x2="1" y2="0" gradientUnits="userSpaceOnUse" gradientTransform="matrix(9.51067e-16,15.5321,-15.5321,9.51067e-16,21.2846,8.75439)"><stop offset="0" style="stop-color:white;stop-opacity:1"/><stop offset="1" style="stop-color:white;stop-opacity:1"/></linearGradient>
        <linearGradient id="_Linear4" x1="0" y1="0" x2="1" y2="0" gradientUnits="userSpaceOnUse" gradientTransform="matrix(12.2673,-23.4194,23.4194,12.2673,6.97287,25.0924)"><stop offset="0" style="stop-color:white;stop-opacity:1"/><stop offset="1" style="stop-color:white;stop-opacity:1"/></linearGradient>
    </defs>
</svg>
