<svg xmlns="http://www.w3.org/2000/svg" width="205" height="29" viewBox="0 0 205 29"><g><g><g><g/><g><path fill="#f44336" d="M201.69 7.3l3.306 14.488c-.844.01-1.544.024-2.243.026-1.635 0-1.633 0-2.008-1.5-.051-.21-.145-.409-.23-.653h-5.004c-.215.522-.438 1.039-.633 1.563-.12.318-.274.579-.666.58h-3.892c.111-.342.164-.567.262-.788 1.836-4.039 3.69-8.072 5.513-12.118.496-1.102 1.252-1.689 2.54-1.611 1.002.06 2.002.013 3.055.013zm-1.824 9.184l-1.116-4.985c-.705 1.769-1.334 3.35-1.987 4.985z"/></g><g><path fill="#f44336" d="M178.99 21.083c.195-1.008.377-2.043.586-3.133.909.258 1.72.568 2.56.704.84.136 1.738.097 2.61.115.16-.02.317-.062.466-.124.573-.16 1.024-.486 1.098-1.07.067-.521-.35-.854-.77-1.11-.39-.232-.798-.414-1.193-.626-.623-.336-1.262-.646-1.856-1.025-2.573-1.64-2.165-4.592-.244-6.157a7.236 7.236 0 0 1 3.14-1.417c1.97-.412 4.022-.269 5.911.413-.195 1.057-.371 2.08-.565 3.163-.408-.11-.687-.165-.951-.262-1.026-.378-2.092-.408-3.163-.321a2.563 2.563 0 0 0-1.004.31c-.703.388-.756 1.031-.121 1.513.396.271.813.513 1.246.725.758.42 1.563.773 2.272 1.26 2.005 1.382 2.286 3.849.708 5.688-1.052 1.225-2.466 1.812-4.027 2.094-2.008.36-3.997.162-5.959-.358a2.95 2.95 0 0 1-.453-.168 2.168 2.168 0 0 1-.291-.214z"/></g><g><path fill="#f44336" d="M169.018 7.35h4.323c-.063.248-.14.493-.228.734-1.903 4.279-3.824 8.55-5.697 12.84-.27.613-.635.881-1.29.876h-2.819c-.435 0-.73-.142-.863-.587a4461.959 4461.959 0 0 0-3.321-11.065.77.77 0 0 1 .025-.269c1.954.586 4.927 3.985 5.976 6.906 1.397-3.204 2.546-6.361 3.894-9.435z"/></g><g><path fill="#f44336" d="M174.928 7.32h4.087c.023.276.023.553 0 .828-.535 3.05-1.086 6.097-1.629 9.144-.23 1.292-.47 2.584-.676 3.882-.066.412-.244.632-.68.63-1.07 0-2.149 0-3.212-.023-.113 0-.224-.09-.408-.17.832-4.748 1.668-9.479 2.518-14.291z"/></g><g><path fill="#f44336" d="M164.387 14.177c-1.096-1.748-2.381-3.199-4.048-4.35-1.615-1.113-3.46-1.747-5.339-2.318l.033-.212c.182-.08.375-.134.573-.163 1.908-.013 3.817-.024 5.726 0 1.184.016 1.684.435 1.94 1.563.39 1.672.748 3.35 1.111 5.026.018.15.02.303.004.454z"/></g></g><g><g/><g><path fill="#f44336" d="M32.342 8.104h3.476l.206.916c.159-.12.302-.228.446-.334a4.385 4.385 0 0 1 1.853-.777 4.362 4.362 0 0 1 1.035-.061c.55.03 1.089.155 1.593.367.517.221.991.525 1.405.898.466.416.838.899 1.15 1.43.424.723.68 1.504.842 2.316.063.315.087.637.127.957.054.417.07.838.05 1.258-.022.414-.064.828-.108 1.24a8.047 8.047 0 0 1-.451 1.893 6.142 6.142 0 0 1-1.055 1.857c-.394.475-.879.871-1.429 1.166a4.67 4.67 0 0 1-1.733.544c-.225.023-.45.053-.675.048a4.454 4.454 0 0 1-1.725-.357 5.973 5.973 0 0 1-.872-.495c-.046-.03-.094-.058-.164-.1v.18c0 .93 0 1.861-.003 2.792-.002.411-.015.822-.023 1.233-.002.117-.005.124-.125.15a2130.542 2130.542 0 0 1-3.064.631l-.736.149-.023-.016c-.004-.004-.009-.008-.01-.011a.785.785 0 0 1-.009-.097l.003-17.725a.205.205 0 0 1 .019-.052zm8.264 6.747c-.013-.19-.027-.381-.039-.572a4.275 4.275 0 0 0-.258-1.203c-.203-.554-.495-1.055-.987-1.42a1.827 1.827 0 0 0-1.08-.38 4.205 4.205 0 0 0-.519.027 2.27 2.27 0 0 0-1.331.612.304.304 0 0 0-.105.246c.012.514.023 1.028.024 1.542.004 1.267.007 2.535 0 3.802 0 .169.052.287.184.382l.046.034c.558.425 1.195.557 1.888.484.424-.044.779-.23 1.085-.51.362-.33.603-.737.771-1.186.224-.601.318-1.222.321-1.858z"/></g><g><path fill="#f44336" d="M49.984 17.882c.224.2.488.353.775.452.412.148.847.225 1.286.228.265.002.531.01.796-.004a9.143 9.143 0 0 0 1.414-.177 8.668 8.668 0 0 0 1.776-.583c.03-.014.062-.027.093-.038.008-.002.019.003.04.006.002.043.007.089.007.135 0 .927 0 1.852.002 2.778 0 .103-.034.158-.128.206-.798.4-1.658.67-2.546.799-.414.06-.829.11-1.248.112-.212 0-.424.028-.635.02a8.901 8.901 0 0 1-1.587-.185c-.47-.1-.929-.25-1.365-.45a5.756 5.756 0 0 1-1.309-.84 5.426 5.426 0 0 1-1.011-1.165 6.12 6.12 0 0 1-.692-1.46 7.34 7.34 0 0 1-.298-1.226c-.045-.314-.075-.63-.096-.946a9.748 9.748 0 0 1-.025-.924c.01-.326.044-.652.077-.976a7.176 7.176 0 0 1 .325-1.506 7.11 7.11 0 0 1 .588-1.354c.198-.342.425-.668.68-.974a5.503 5.503 0 0 1 1.31-1.134c.357-.223.74-.403 1.143-.534.457-.15.926-.257 1.41-.277.265-.01.53-.034.793-.021.659.03 1.298.151 1.907.408.387.16.75.367 1.08.62.487.375.906.829 1.237 1.341.314.489.565 1.013.747 1.561.176.514.298 1.045.363 1.583.038.325.068.65.087.976.019.325.024.644.024.966 0 .275-.016.55-.025.826-.005.121-.017.133-.145.136h-7.596c.063.64.27 1.19.746 1.62zm3.252-4.468c.003-.055.008-.096.008-.137 0-.337-.06-.67-.174-.989a2.054 2.054 0 0 0-.45-.744c-.444-.466-1.005-.631-1.638-.552-.556.069-1.002.34-1.328.786-.285.389-.409.832-.454 1.298-.01.109-.023.222.013.337z"/></g><g><path fill="#f44336" d="M.184 17.3l.174.08c.574.289 1.17.532 1.785.725.555.174 1.12.312 1.701.372.326.031.654.04.98.028a1.89 1.89 0 0 0 .753-.182c.487-.23.583-.896.227-1.27a2.101 2.101 0 0 0-.777-.5c-.594-.23-1.195-.445-1.794-.668-.632-.236-1.245-.506-1.793-.898-.757-.543-1.247-1.25-1.385-2.167a4.02 4.02 0 0 1-.053-.781c.04-.885.284-1.704.85-2.413a4.082 4.082 0 0 1 1.302-1.07c.636-.337 1.322-.531 2.039-.633a8.996 8.996 0 0 1 1.642-.073 11.036 11.036 0 0 1 3.108.573c.081.028.16.06.243.088.073.025.114.066.104.145a.681.681 0 0 0 0 .085v3.424a3.58 3.58 0 0 1-.151-.067 9.12 9.12 0 0 0-2.576-.803 7.625 7.625 0 0 0-1.336-.105c-.226.002-.45.039-.666.109-.368.123-.559.393-.536.756.016.259.168.442.373.588.251.178.534.299.825.401.497.177 1 .342 1.498.517.586.205 1.153.45 1.673.789.416.27.776.598 1.056 1.003.307.442.487.93.565 1.457.048.29.065.585.053.88-.047.88-.304 1.688-.89 2.38-.465.55-1.045.947-1.715 1.229a6.927 6.927 0 0 1-1.565.433 5.26 5.26 0 0 1-.645.065c-.4.017-.8.036-1.198.024-.35-.013-.7-.046-1.047-.098-.37-.053-.74-.122-1.105-.205A10.679 10.679 0 0 1 .286 21c-.087-.035-.114-.08-.114-.167.002-1.137.003-2.273.002-3.41 0-.03.005-.063.01-.123z"/></g><g><path fill="#f44336" d="M17.7 18.199c.003.056.009.098.009.14 0 .945 0 1.89.002 2.835 0 .102-.03.16-.129.206-.36.167-.742.263-1.132.326a7.77 7.77 0 0 1-.773.086c-.34.02-.683.035-1.025.025a4.017 4.017 0 0 1-1.348-.286 3.872 3.872 0 0 1-1.257-.784 3.724 3.724 0 0 1-1.11-1.93 4.217 4.217 0 0 1-.088-.638c-.02-.302-.026-.606-.027-.91a772.167 772.167 0 0 1 0-3.536l.024-8.013V5.6c.112-.064 3.705-.816 3.85-.81.037.101.048 1.008.029 1.634-.018.546-.024 1.092-.036 1.656.075.005.13.012.185.012H17.695c.03.28.01.55.014.818.003.268 0 .542 0 .815v1.645c-.206.018-.402.007-.597.01H14.714c-.006.05-.013.089-.013.129 0 1.801 0 3.602.002 5.404-.002.253.05.504.15.737.208.465.594.695 1.093.771.547.083 1.073-.02 1.592-.174z"/></g><g><path fill="#f44336" d="M22.92 21.535h-3.942c-.032-.11-.04-13.265-.007-13.432.042-.003.09-.01.135-.01h3.127c.146 0 .148 0 .18.14.064.279.125.557.188.836.01.04.023.08.04.136.134-.221.298-.425.487-.606a2.34 2.34 0 0 1 1.273-.616 3.213 3.213 0 0 1 1.388.075c.139.04.141.037.141.168v3.27c0 .041-.007.082-.012.138-.12-.026-.225-.053-.333-.07-.627-.102-1.24-.057-1.82.209a2.184 2.184 0 0 0-.796.614.258.258 0 0 0-.045.113.704.704 0 0 0-.002.126v8.908z"/></g><g><path fill="#f44336" d="M30.876 21.54h-3.968c-.032-.113-.04-13.258-.008-13.43.042-.003.087-.01.135-.01h3.673c.158 0 .166.009.168.156V21.54z"/></g><g><path fill="#f44336" d="M30.865 3c.003.056.008.1.008.146v2.806c0 .164-.008.17-.169.204l-2.779.577-.96.198a.506.506 0 0 1-.05.005l-.017-.013c-.003-.003-.008-.007-.008-.01-.004-.042-.01-.085-.01-.126V3.834c.113-.064 3.61-.794 3.985-.834z"/></g></g><g><g/><g><path fill="#f44336" d="M106.004 3.608c7.284-6.05 15.945-3.656 20.204 1.06a14.58 14.58 0 0 1 3.784 9.324 14.595 14.595 0 0 1-3.147 9.561 14.428 14.428 0 0 1-6.248 4.53 14.32 14.32 0 0 1-7.671.648 14.713 14.713 0 0 1-6.9-3.428c-3.607 2.981-7.642 4.273-12.218 3.437-3.577-.652-6.504-2.469-8.753-5.333-4.341-5.527-4.005-13.332.686-18.657 4.156-4.711 12.88-7.258 20.263-1.142zm-9.15 7.499c-.75 0-1.37.023-1.986 0a.83.83 0 0 0-.571.125.84.84 0 0 0-.35.472c-.402.985-.837 1.955-1.27 2.925-.094.17-.201.334-.321.487l-.146-.045c-.04-1.297-.08-2.592-.118-3.913h-2.509l-1.262 6.645h1.34c.476-1.61.543-3.256 1.183-4.77.096 1.582.188 3.167.29 4.773h1.434l2.161-4.894.17.057c-.284 1.597-.571 3.195-.87 4.852h1.52c.426-2.196.848-4.36 1.306-6.714zm25.195 1.134c-2.14-.051-3.672 1.652-3.024 4.274.1.408.474.824.834 1.08 1.017.724 2.891.542 3.852-.293.96-.836 1.322-2.562.791-3.72-.482-1.054-1.38-1.367-2.453-1.34zm-15.02 3.323c.066-.378.111-.624.15-.871.228-1.414-.562-2.354-1.982-2.442-2.463-.154-3.433 2.517-2.968 4.085.09.348.27.668.519.926.25.258.561.446.905.546a4.344 4.344 0 0 0 2.574.027.75.75 0 0 0 .428-.405c.063-.237.094-.482.092-.728-.74.029-1.42.11-2.092.068-.672-.041-.891-.33-.927-1.204h3.302zm-9.548-2.019c.447-.045.812-.11 1.176-.113.37-.018.741.014 1.103.095.43.117.595.41.29.854-.323 0-.633-.019-.939 0-.31.03-.616.08-.919.153a2.178 2.178 0 0 0-1.383.888c-.388.568-.425 1.452-.046 1.948.424.554 1.014.709 1.67.544.442-.11.868-.291 1.312-.442.396.433.396.433 1.314.268l.562-3.11c.012-.062.025-.122.034-.189.188-1.402-.42-2.145-1.844-2.177a7.818 7.818 0 0 0-1.572.126c-.735.142-.73.172-.767 1.155zm9.84 4.193c.958.296 1.979.324 2.952.081a1.59 1.59 0 0 0 .875-.505c.23-.259.37-.587.399-.933.086-.662-.238-1.252-.89-1.6-.219-.116-.48-.17-.669-.319-.19-.15-.405-.387-.375-.544.03-.157.324-.378.525-.397.479-.037.96-.043 1.439-.02.08-.404.148-.755.216-1.094-1.163-.232-2.203-.189-2.848.085a1.575 1.575 0 0 0-.705.518c-.182.237-.294.52-.323.817a1.464 1.464 0 0 0 .734 1.501c.243.139.494.265.75.378.28.136.613.248.546.65-.073.448-.47.44-.801.482-.188.01-.376.005-.563-.013h-1.126c-.052.318-.097.586-.146.913zm5.712-6.576c-.297 1.654-.563 3.189-.846 4.725-.073.304-.121.613-.143.925 0 .586.27.934.82 1.117.55.183 1.092.04 1.647-.208.019-.29.036-.567.05-.815-.975-.364-.975-.364-.784-1.368.079-.302.133-.61.164-.92.024-.685.272-1.135 1.088-1.135l.11-.932-.737-.318.128-1.075zm6.25 1.253c-.803-.318-1.211.34-1.765.644l-.04-.578h-1.331l-.966 5.31h1.525c.188-.888.343-1.713.546-2.525.202-.813.551-1.545 1.58-1.458.134-.342.255-.627.361-.92.042-.156.075-.314.098-.473zm-9.556-2.67c-.232-1.25-.277-1.292-1.379-1.294h-4.573c-1.064 0-1.191.12-1.405 1.295zm-6.824 11.006c.405 1.248.426 1.267 1.521 1.27h3.165c1.11 0 1.11 0 1.514-1.27zm5.342-14.071c-.476-1.724-1.827-1.333-3.001-1.346-.899-.002-.953.816-1.355 1.346zm-.979 17.1h-2.311c.345.42.686.84 1.032 1.26z"/></g><g><path fill="#f44336" d="M123.059 14.82a1.968 1.968 0 0 1-.724 1.648c-.651.545-1.313.378-1.621-.414-.276-.708.02-1.833.612-2.3a1.079 1.079 0 0 1 1.219-.15c.473.25.529.73.514 1.216z"/></g><g><path fill="#f44336" d="M105.763 14.465h-1.803c.158-.771.593-1.159 1.154-1.073.487.071.647.323.649 1.073z"/></g><g><path fill="#f44336" d="M99.811 15.502c0 .775-.253 1.172-.836 1.365a.68.68 0 0 1-.886-.3c-.22-.366-.043-.666.223-.914.314-.289.715-.317 1.5-.151z"/></g></g></g></g></svg>
