<svg width="6" height="10" viewBox="0 0 6 10" fill="none" xmlns="http://www.w3.org/2000/svg">
<path d="M3.78109 5L0.252731 1.47164C-0.0839281 1.13498 -0.0839281 0.589152 0.252731 0.252494C0.58939 -0.0841656 1.13522 -0.0841656 1.47188 0.252494L5.60981 4.39043C5.94647 4.72708 5.94647 5.27292 5.60981 5.60957L1.47188 9.74751C1.13522 10.0842 0.58939 10.0842 0.252731 9.74751C-0.0839281 9.41085 -0.0839281 8.86501 0.252731 8.52836L3.78109 5Z" fill="white"/>
<path d="M4.13464 5.35355L4.48819 5L4.13464 4.64645L0.606284 1.11809C0.464888 0.976693 0.464888 0.747444 0.606284 0.606048C0.747681 0.46465 0.976929 0.46465 1.11833 0.606047L5.25626 4.74398C5.39765 4.88538 5.39765 5.11462 5.25626 5.25602L1.11833 9.39395C0.976929 9.53535 0.747681 9.53535 0.606284 9.39395C0.464888 9.25256 0.464888 9.02331 0.606284 8.88191L4.13464 5.35355Z" stroke="#405986" stroke-opacity="0.3"/>
</svg>
