<svg width="22" height="22" viewBox="0 0 22 22" fill="none" xmlns="http://www.w3.org/2000/svg">
<g clip-path="url(#clip0_419_5452)">
<path d="M9.91892 18.1079H5.89098C5.35725 18.1079 5.11621 17.8701 5.11621 17.3326V0.778506C5.11621 0.245282 5.35897 -0.0010917 5.89098 -0.00195312H19.124C19.6664 -0.00195312 19.904 0.240986 19.904 0.790577C19.904 4.00083 19.904 7.21138 19.904 10.4222V10.635C17.3257 9.37038 14.8112 9.36263 12.5006 11.1355C10.2176 12.8824 9.39121 15.2496 9.91892 18.1079ZM12.511 3.87102H15.4336C15.8562 3.87102 16.2789 3.88049 16.7007 3.86585C16.8017 3.86566 16.9011 3.841 16.9905 3.79397C17.0798 3.74693 17.1565 3.67896 17.2139 3.59581C17.2712 3.51267 17.3076 3.41685 17.3199 3.31656C17.3322 3.21628 17.32 3.11449 17.2844 3.01994C17.1854 2.72275 16.9547 2.58321 16.5518 2.58321C13.859 2.58321 11.1663 2.58321 8.47354 2.58321C8.38694 2.5823 8.30045 2.58978 8.21529 2.60559C8.12684 2.62126 8.0428 2.65585 7.9689 2.70696C7.89501 2.75807 7.83299 2.82449 7.78708 2.90175C7.74116 2.97901 7.71243 3.06525 7.70283 3.15462C7.69324 3.244 7.70301 3.3344 7.73149 3.41966C7.82446 3.7246 8.04226 3.87016 8.4262 3.87102C9.78864 3.87217 11.1502 3.87217 12.511 3.87102ZM12.511 6.45102H15.4327C15.8554 6.45102 16.2781 6.45963 16.7007 6.44584C16.8017 6.44557 16.9012 6.4208 16.9905 6.37366C17.0799 6.32653 17.1564 6.25841 17.2137 6.17517C17.271 6.09194 17.3073 5.99605 17.3195 5.89571C17.3316 5.79538 17.3193 5.69358 17.2835 5.59905C17.1845 5.30272 16.9538 5.16232 16.5509 5.16232H8.47268C8.38606 5.16097 8.29953 5.16846 8.21443 5.1847C8.12608 5.20037 8.04215 5.23492 7.96836 5.28599C7.89457 5.33705 7.83264 5.40343 7.7868 5.48061C7.74097 5.55778 7.7123 5.64396 7.70276 5.73323C7.69321 5.8225 7.70301 5.91275 7.73149 5.99788C7.82446 6.30369 8.04226 6.44929 8.42706 6.44929C9.79008 6.45159 11.1517 6.45216 12.5118 6.45102H12.511ZM12.4894 9.0353H16.1851C16.3641 9.0353 16.5441 9.04048 16.7223 9.02928C16.8779 9.02339 17.0256 8.95917 17.1361 8.84939C17.2466 8.7396 17.3118 8.59225 17.3188 8.43659C17.332 8.28088 17.2862 8.12589 17.1906 8.00239C17.0949 7.87888 16.9563 7.79589 16.8023 7.76987C16.7172 7.75406 16.6307 7.74654 16.5441 7.74745C13.8513 7.74745 11.1585 7.74745 8.4658 7.74745C8.37917 7.7461 8.29264 7.75362 8.20754 7.76987C8.11916 7.78564 8.03522 7.8203 7.96143 7.87145C7.88763 7.9226 7.82572 7.98903 7.77989 8.06628C7.73406 8.14352 7.70541 8.22975 7.69587 8.31907C7.68632 8.40839 7.69613 8.4987 7.7246 8.58389C7.81757 8.88884 8.03537 9.03355 8.42017 9.03442C9.78032 9.03384 11.137 9.033 12.4903 9.03185L12.4894 9.0353ZM9.36883 11.6118C9.69079 11.6118 10.0136 11.6118 10.3356 11.6118C10.7557 11.6067 11.0243 11.3646 11.0346 10.9881C11.0449 10.6117 10.7669 10.3309 10.3459 10.3266C9.68763 10.3185 9.02908 10.3185 8.37024 10.3266C7.97425 10.3317 7.69103 10.6221 7.7005 10.9873C7.70997 11.3526 7.98716 11.6067 8.38143 11.6118C8.71028 11.6153 9.03999 11.6118 9.36883 11.6118Z" fill="#286FEB"/>
<path d="M16.5223 21.9965C13.5299 21.9551 11.1109 19.8653 11.0601 16.4834C11.0162 13.5054 13.5437 11.0383 16.536 11.0469C19.5284 11.0555 22.0524 13.5192 21.9982 16.4971C21.9379 19.8808 19.5215 21.9655 16.5223 21.9965ZM18.4661 17.7858C18.4816 17.2018 18.2577 16.703 17.8299 16.4127C17.5641 16.246 17.2848 16.102 16.9949 15.982C16.7091 15.8528 16.4095 15.752 16.122 15.6262C16.055 15.5997 15.999 15.5511 15.9633 15.4885C15.9276 15.4258 15.9144 15.3529 15.9257 15.2817C15.9446 15.1146 16.035 14.9759 16.1951 14.9621C16.4185 14.9428 16.6435 14.9538 16.864 14.9948C17.0362 15.0275 17.1223 15.1671 17.1472 15.3566C17.1937 15.7529 17.4985 15.9932 17.8729 15.9458C18.2242 15.901 18.46 15.5797 18.4222 15.1972C18.3576 14.5451 18.0115 14.0877 17.4244 13.8293C17.2127 13.7363 17.1455 13.6337 17.1507 13.408C17.1602 12.9722 16.8322 12.7008 16.4086 12.7585C16.0729 12.8033 15.8654 13.0669 15.8732 13.4735C15.8841 13.5416 15.8693 13.6113 15.8316 13.669C15.7938 13.7267 15.7359 13.7682 15.6691 13.7854C15.0287 14.0524 14.6783 14.546 14.6404 15.2403C14.6034 15.9028 14.8892 16.4101 15.4608 16.7357C15.7343 16.8754 16.0157 16.9991 16.3036 17.1062C16.5266 17.2001 16.7555 17.2836 16.9759 17.3844C17.0428 17.4114 17.0986 17.46 17.1347 17.5224C17.1707 17.5849 17.1848 17.6576 17.1748 17.729C17.1584 17.897 17.0706 18.0382 16.9088 18.0511C16.6785 18.068 16.447 18.055 16.2201 18.0124C16.0557 17.9814 15.9748 17.8401 15.9541 17.6609C15.9085 17.2741 15.6098 17.0235 15.2534 17.0622C14.897 17.101 14.6413 17.4249 14.6792 17.8125C14.7472 18.512 15.1397 18.9677 15.769 19.2304C15.9042 19.2864 15.9679 19.3467 15.9463 19.4889C15.9395 19.5533 15.9395 19.6183 15.9463 19.6827C15.9512 19.7815 15.9791 19.8778 16.0279 19.9638C16.0768 20.0498 16.1451 20.1231 16.2274 20.1779C16.3098 20.2326 16.4038 20.2672 16.502 20.2789C16.6001 20.2906 16.6997 20.2791 16.7926 20.2452C17.0921 20.1453 17.235 19.9187 17.2282 19.5147C17.2282 19.364 17.2703 19.2985 17.415 19.2391C18.0968 18.9686 18.4161 18.431 18.4669 17.7893L18.4661 17.7858Z" fill="#286FEB"/>
<path d="M0.0161133 5.90234H3.85897V13.793H0.0161133V5.90234Z" fill="#286FEB"/>
<path d="M3.86023 4.59491H0.023395C-0.0626905 3.76105 0.0793509 3.01331 0.798165 2.49387C1.45586 2.0175 2.1652 1.97701 2.88057 2.36121C3.62866 2.75747 3.95406 3.50606 3.86023 4.59491Z" fill="#286FEB"/>
<path d="M0.234375 15.1055H3.64422C3.61753 15.1821 3.59946 15.2459 3.57363 15.3071C3.2422 16.1065 2.90647 16.9041 2.57848 17.7053C2.45968 17.9947 2.27718 18.1894 1.94403 18.1902C1.61088 18.1911 1.42752 18.0025 1.30442 17.7113C0.972988 16.9041 0.636394 16.0996 0.302383 15.2933C0.280861 15.2398 0.263644 15.1864 0.234375 15.1055Z" fill="#286FEB"/>
</g>
<defs>
<clipPath id="clip0_419_5452">
<rect width="22" height="22" fill="white"/>
</clipPath>
</defs>
</svg>
