<svg xmlns="http://www.w3.org/2000/svg" width="23" height="23" viewBox="0 0 23 23"><g><g><g/><g><path fill="#f44336" d="M9.806 20.442l.3-1.49c.099-.49.202-.981.29-1.474a.786.786 0 0 0-.02-.369c-.295-.91-.61-1.814-.895-2.727a.912.912 0 0 1 .02-.535c.065-.188.263-.253.463-.253 1.025 0 2.05-.008 3.076 0 .438.005.64.329.497.767-.29.88-.592 1.756-.87 2.64-.057.182-.07.375-.038.562.167.92.36 1.835.54 2.751.009.042.026.084.054.174.197-.547.38-1.048.56-1.549l1.5-4.2c.18-.51.38-.608.906-.459 1.456.403 2.866.96 4.205 1.66 1.675.887 2.543 2.305 2.598 4.202.012.424.021.865-.077 1.27-.237.975-1.026 1.56-2.028 1.586H2.229c-.9 0-1.593-.367-2.001-1.187a1.955 1.955 0 0 1-.193-.683c-.097-1.119-.016-2.21.545-3.223a4.748 4.748 0 0 1 2.048-1.98 23.067 23.067 0 0 1 4.228-1.656c.468-.131.68-.027.843.43.668 1.856 1.334 3.713 2 5.57l.06.166z"/></g><g><path fill="#f44336" d="M17.773 6.266c.019 3.44-2.802 6.265-6.264 6.275-3.462.01-6.255-2.79-6.279-6.26C5.206 2.847 8.038.008 11.494 0c3.456-.009 6.257 2.798 6.28 6.266z"/></g></g></g></svg>
