<svg width="26" height="32" viewBox="0 0 26 32" fill="none" xmlns="http://www.w3.org/2000/svg">
<g clip-path="url(#clip0_419_5964)">
<path d="M5.57247 13.1738C4.72857 14.3713 3.95991 15.6061 3.32206 16.9247C2.62303 18.3757 2.06254 19.8753 1.76928 21.4651C1.51962 22.8225 1.45281 24.1798 1.88109 25.5167C2.46128 27.3291 3.82419 28.3342 5.67093 28.4751C7.17519 28.5906 8.59155 28.2159 9.96078 27.6418C12.0136 26.7811 13.8287 25.5456 15.4968 24.0805C18.3907 21.5341 20.7382 18.5638 22.4028 15.0729C23.0955 13.6183 23.6285 12.1081 23.8873 10.5113C24.0927 9.2434 24.1335 7.97552 23.7277 6.73651C23.1981 5.12066 22.1046 4.1303 20.4097 3.83517C20.3479 3.8248 20.2874 3.80803 20.229 3.78516C21.5075 3.78516 22.6904 4.08381 23.682 4.9333C24.5076 5.63768 25.0006 6.54844 25.2678 7.59093C25.5273 8.60242 25.5639 9.6294 25.4633 10.6627C25.2116 13.2605 24.3177 15.6554 23.0955 17.9319C20.6981 22.3977 17.4406 26.1133 13.2752 29.0125C11.7379 30.0825 10.0909 30.9482 8.29548 31.5075C7.15691 31.8597 5.99373 32.0576 4.79679 31.9822C2.5295 31.8413 0.904978 30.5115 0.279785 28.2962C-0.0141756 27.2551 -0.0570748 26.1915 0.0484134 25.1265C0.337451 22.2012 1.43664 19.5534 2.86143 17.0219C3.61393 15.7005 4.46643 14.4387 5.41143 13.2478C5.43323 13.2203 5.45785 13.1957 5.48176 13.1689L5.57247 13.1738Z" fill="url(#paint0_linear_419_5964)"/>
<path fill-rule="evenodd" clip-rule="evenodd" d="M8.54025 20.2835C8.55297 20.2992 8.56568 20.3149 8.57629 20.3309C8.6158 20.2546 8.65459 20.178 8.69334 20.1014C8.78359 19.9229 8.87361 19.745 8.97182 19.5737C8.87759 19.7413 8.79085 19.9131 8.70413 20.0848C8.66265 20.167 8.62117 20.2491 8.57888 20.3307C8.70701 20.2838 8.83476 20.2356 8.96251 20.1875C9.25685 20.0764 9.55121 19.9654 9.85036 19.8701C10.5768 19.6404 11.311 19.6109 12.0466 19.8468C12.6212 20.0314 13.1402 20.3244 13.6444 20.6484C13.757 20.7211 13.8689 20.7952 13.9841 20.8715C14.0329 20.9038 14.0822 20.9365 14.1325 20.9696C14.145 20.9484 14.157 20.9288 14.1684 20.9101C14.1942 20.8678 14.2171 20.8303 14.2366 20.7907C14.3821 20.4966 14.5297 20.2033 14.6773 19.91C15.0273 19.2144 15.3774 18.5185 15.7014 17.8105C16.2254 16.6708 16.6797 15.5022 16.9286 14.2667C17.0376 13.7258 17.122 13.1799 16.9814 12.629C16.9153 12.3656 16.8062 12.1254 16.57 11.9775C16.4497 11.9028 16.4511 11.8408 16.4996 11.7239C16.6532 11.3538 16.8079 10.9841 16.9626 10.6143C17.3796 9.61734 17.7968 8.62008 18.1924 7.61456C18.9575 5.66977 19.6861 3.70948 20.1284 1.65903C20.2459 1.11524 20.352 0.568647 20.2852 0.0051424C20.2843 0.00613381 20.2834 0.00712754 20.2825 0.00812359C20.2683 0.00792881 20.2533 0.005978 20.2384 0.0040371C20.2072 -2.16555e-05 20.1764 -0.0040371 20.154 0.00813951C19.9847 0.099339 19.8203 0.199504 19.6617 0.308206C18.8199 0.914678 18.0962 1.65146 17.3986 2.41148C15.618 4.35276 14.0033 6.42998 12.4196 8.53185L11.8865 9.24116C11.3858 8.99251 10.9793 9.07986 10.48 9.35597C9.84074 9.70887 9.32104 10.2076 8.82876 10.738C7.66628 11.9953 6.69017 13.3928 5.75835 14.8234C5.62269 15.0319 5.49295 15.2441 5.36104 15.4599C5.29464 15.5685 5.2277 15.678 5.15918 15.7884C5.18548 15.8015 5.20977 15.8133 5.23263 15.8244C5.27456 15.8447 5.3117 15.8627 5.34766 15.8828C5.48898 15.9636 5.63168 16.0424 5.77442 16.1212C6.09834 16.3001 6.42244 16.4791 6.73096 16.6815C7.11648 16.9301 7.4488 17.2529 7.70862 17.6313C7.96843 18.0097 8.15054 18.436 8.24436 18.8855C8.3019 19.1466 8.34632 19.4108 8.39077 19.6751C8.41912 19.8437 8.44747 20.0123 8.47924 20.1802C8.48641 20.217 8.51335 20.2503 8.54025 20.2835ZM20.2176 0.0884851C20.2144 0.0928974 20.2112 0.0973437 20.2081 0.101823C20.1627 0.18032 20.1173 0.258819 20.0719 0.33732C20.1179 0.25805 20.164 0.178786 20.21 0.099527C20.2125 0.0958242 20.2151 0.0921434 20.2176 0.0884851ZM18.5192 3.02311C18.4727 3.10357 18.4262 3.18403 18.3797 3.26449C18.2303 3.52468 18.0838 3.78686 17.9374 4.04898C17.8702 4.16933 17.803 4.28968 17.7355 4.40981C17.6671 4.43386 17.6024 4.46754 17.5435 4.50984C17.478 4.5734 17.4119 4.63661 17.3458 4.69985C17.1151 4.92045 16.8841 5.14145 16.6764 5.37904C16.0322 6.12075 15.4738 6.92234 15.0933 7.83592C14.895 8.31067 14.7417 8.79458 14.869 9.32005C14.8624 9.33478 14.8563 9.34985 14.8502 9.36491C14.8415 9.38624 14.8329 9.40753 14.8229 9.42777C14.834 9.40602 14.8434 9.38292 14.8528 9.35979C14.8589 9.34474 14.865 9.32967 14.8716 9.31494C15.309 9.21632 15.6163 8.92471 15.8801 8.59295C16.8597 7.36239 17.4624 5.95645 17.7374 4.40752C17.8049 4.28728 17.8722 4.16684 17.9395 4.04638C18.0858 3.78436 18.2322 3.52229 18.3815 3.2622C18.4274 3.1825 18.4733 3.1028 18.5192 3.02311ZM14.7135 9.61944C14.149 10.6016 13.5844 11.5835 13.0199 12.5649C13.5863 11.5835 14.1508 10.6016 14.7135 9.61944Z" fill="url(#paint1_linear_419_5964)"/>
<path d="M5.70366 25.3002C5.70366 24.7303 5.68045 24.1732 5.70928 23.6202C5.74444 22.9482 5.82461 22.2819 6.04544 21.6367C6.16358 21.2922 6.31197 20.9633 6.58272 20.7027C6.7141 20.5712 6.87625 20.4749 7.05437 20.4223C7.23249 20.3698 7.42092 20.3628 7.60244 20.4019C8.1088 20.4918 8.57039 20.7492 8.91331 21.133C9.05447 21.2797 9.15172 21.463 9.19399 21.6623C9.23626 21.8615 9.22185 22.0686 9.15242 22.26C8.97801 22.8066 8.6081 23.2103 8.19529 23.5808C7.45546 24.2443 6.62843 24.786 5.76765 25.2769C5.74694 25.2863 5.72555 25.2941 5.70366 25.3002Z" fill="url(#paint2_linear_419_5964)"/>
<path d="M5.57287 13.174L5.48145 13.1691C5.65585 12.9437 5.8305 12.7181 6.00537 12.4922L6.05952 12.5337L5.57287 13.174Z" fill="#EF815A"/>
</g>
<defs>
<linearGradient id="paint0_linear_419_5964" x1="12.7555" y1="31.9981" x2="12.7555" y2="3.78516" gradientUnits="userSpaceOnUse">
<stop stop-color="#0B2758"/>
<stop offset="0.5" stop-color="#405986"/>
<stop offset="1" stop-color="#AAD4FF"/>
</linearGradient>
<linearGradient id="paint1_linear_419_5964" x1="12.7326" y1="20.9696" x2="12.7326" y2="0" gradientUnits="userSpaceOnUse">
<stop stop-color="#0B2758"/>
<stop offset="0.5" stop-color="#405986"/>
<stop offset="1" stop-color="#AAD4FF"/>
</linearGradient>
<linearGradient id="paint2_linear_419_5964" x1="7.45627" y1="25.3002" x2="7.45627" y2="20.377" gradientUnits="userSpaceOnUse">
<stop stop-color="#0B2758"/>
<stop offset="0.5" stop-color="#405986"/>
<stop offset="1" stop-color="#AAD4FF"/>
</linearGradient>
<clipPath id="clip0_419_5964">
<rect width="25.519" height="32" fill="white"/>
</clipPath>
</defs>
</svg>
