<?xml version="1.0" encoding="UTF-8" standalone="no"?>
<!DOCTYPE svg PUBLIC "-//W3C//DTD SVG 1.1//EN" "http://www.w3.org/Graphics/SVG/1.1/DTD/svg11.dtd">
<svg width="100%" height="100%" viewBox="0 0 600 161" version="1.1" xmlns="http://www.w3.org/2000/svg" xmlns:xlink="http://www.w3.org/1999/xlink" xml:space="preserve" xmlns:serif="http://www.serif.com/" style="fill-rule:evenodd;clip-rule:evenodd;stroke-linejoin:round;stroke-miterlimit:2;">
    <g transform="matrix(0.953702,0,0,0.953702,-6.1383,-224.625)">
        <path d="M195,314C195,318.6 195.5,323.2 196.4,326.9C197.3,331.1 198.7,334.3 201,337.5C203.3,340.3 205.6,343 209.3,344.4C213,345.8 216.7,347.2 221.3,347.2C225.9,347.2 229.6,346.3 233.8,344.9C237.5,343.5 240.3,341.7 242.6,340.3L242.6,282.6C240.3,281.7 238,281.7 235.2,281.2C232.4,280.7 228.7,280.7 224.1,280.7C215.3,280.7 208.4,283.5 202.9,289.5C197.8,295.1 195,303.4 195,314ZM181.2,293.7C183.5,287.7 186.3,282.6 190.4,278.5C194.5,274.4 199.2,271.1 204.7,268.8C210.2,267.4 216.7,266 223.6,266C231,266 237.9,266.5 243.9,267.8C249.9,269.2 254.5,270.1 258.2,271L258.2,398.4L242,401.2L242,355C240.2,356.4 236.9,357.8 232.8,359.2C228.7,360.6 224,361.5 219,361.5C212.5,361.5 206.5,360.1 201.5,357.8C196.4,355.5 192.3,352.3 188.6,348.1C184.9,343.9 182.6,338.9 180.8,332.9C179,326.9 178,320.9 178,314C177.9,306.7 178.8,299.7 181.2,293.7ZM361.6,313.6C361.6,321 360.7,327.4 358.4,333.4C356.1,339.4 353.3,344.5 349.6,348.6C345.9,352.7 341.3,356 336.2,358.3C331.1,360.6 325.1,361.5 319.1,361.5C313.1,361.5 307.1,360.6 302,358.3C296.9,356 292.3,352.8 288.6,348.6C284.9,344.4 281.7,339.4 279.8,333.4C277.5,327.4 276.6,320.9 276.6,313.6C276.6,306.7 277.5,299.8 279.8,294.2C282.1,288.2 284.9,283.1 288.6,279C292.3,274.8 296.9,271.6 302,269.3C307.1,267 313.1,266.1 319.1,266.1C325.1,266.1 331.1,267 336.2,269.3C341.3,271.6 345.9,274.8 349.6,279C353.3,283.2 356.5,288.2 358.4,294.2C360.7,300.2 361.6,306.7 361.6,313.6ZM344.5,313.6C344.5,303.4 342.2,295.1 337.6,289.1C333,283.1 326.5,279.9 318.7,279.9C310.9,279.9 304.4,283.1 299.8,289.1C295.2,295.1 293.3,303.4 293.3,313.6C293.3,323.8 295.6,332.1 300.2,338.1C304.8,344.1 311.3,347.3 319.1,347.3C326.9,347.3 333.4,344.1 338,338.1C342.2,332 344.5,324.2 344.5,313.6ZM379.6,270.7C383.3,269.8 388.4,268.9 394.4,267.9C400.4,267 407.8,266.5 415.6,266.5C423,266.5 429,267.4 433.6,269.7C438.2,271.5 442.4,274.8 445.1,278.5C448.3,281.3 450.2,285.9 451.6,291C453,296.1 453.4,301.6 453.4,308.1L453.4,359.3L437.2,359.3L437.2,311.8C437.2,306.3 436.7,301.2 436.3,297.5C435.8,293.8 434.5,290.1 432.6,287.8C430.8,285.5 428.4,283.6 425.7,282.3C422.9,280.9 419.2,280.5 414.6,280.5L409.1,280.5C409.1,280.5 404.9,281 403.1,281.4C401.3,281.9 399.9,281.9 398.5,281.9C397.1,282.4 396.2,282.4 395.7,282.4L395.7,359.5L379.5,359.5L379.5,270.7L379.6,270.7ZM490.4,267.9L525,267.9L525,281.7L490.4,281.7L490.4,323.7C490.4,328.3 490.9,332 491.3,335.2C492.2,338 493.1,340.7 494.5,342.1C495.9,343.9 497.7,344.9 499.6,345.8C501.9,346.7 504.2,346.7 507,346.7C512.1,346.7 515.8,346.2 519,344.9C521.8,344 524.1,343.1 525,342.6L528.2,356C526.4,356.9 523.6,357.8 519.4,359.2C515.2,360.6 510.6,361 505.6,361C499.6,361 494.1,360.1 490.4,358.7C486.2,357.3 483,354.5 480.7,351.8C478.4,348.6 476.5,344.9 475.6,340.3C474.7,335.7 474.2,330.1 474.2,324.1L474.2,242.4L490.4,239.6L490.4,267.9ZM621,313.6C621,321 620.1,327.4 617.8,333.4C615.5,339.4 612.7,344.5 609,348.6C605.3,352.8 600.7,356 595.6,358.3C590.5,360.6 584.5,361.5 578.5,361.5C572.5,361.5 566.5,360.6 561.4,358.3C556.3,356 551.7,352.8 548,348.6C544.3,344.4 541.1,339.4 539.2,333.4C536.9,327.4 536,320.9 536,313.6C536,306.7 536.9,299.8 539.2,294.2C541.5,288.2 544.3,283.1 548,279C551.7,274.8 556.3,271.6 561.4,269.3C566.5,267 572.5,266.1 578.5,266.1C584.5,266.1 590.5,267 595.6,269.3C600.7,271.6 605.3,274.8 609,279C612.7,283.2 615.9,288.2 617.8,294.2C620.1,300.2 621,306.7 621,313.6ZM603.9,313.6C603.9,303.4 601.6,295.1 597,289.1C592.4,283.1 585.9,279.9 578.1,279.9C570.3,279.9 563.8,283.1 559.2,289.1C554.6,295.1 552.3,303.4 552.3,313.6C552.3,323.8 554.6,332.1 559.2,338.1C563.8,344.1 570.3,347.3 578.1,347.3C585.9,347.3 592.4,344.1 597,338.1C601.6,332 603.9,324.2 603.9,313.6Z" style="fill:rgb(38,42,62);fill-rule:nonzero;"/>
    </g>
    <g transform="matrix(0.953702,0,0,0.953702,-6.1383,-224.625)">
        <path d="M37.2,294.2C46.9,303.9 59.8,309.4 73.2,310.4C72.3,297 66.7,284.1 57,274.4C47.3,264.7 34.8,259.2 21,258.2C21.9,271.6 27.5,284.5 37.2,294.2ZM115.6,294.2C105.9,303.9 93,309.4 79.6,310.4C80.5,297 86.1,284.1 95.8,274.4C105,264.7 118,259.2 131.8,258.2C130.8,271.6 125.3,284.5 115.6,294.2ZM115.6,332.5C105.9,322.8 93,317.3 79.6,316.3C80.5,329.7 86.1,342.6 95.8,352.3C105.5,362 118.4,367.5 131.8,368.5C130.8,354.7 125.3,341.7 115.6,332.5ZM37.2,332.5C46.9,322.8 59.8,317.3 73.7,316.3C72.8,329.7 67.2,342.6 57.5,352.3C47.3,362 34.8,367.6 21,368.5C21.9,354.7 27.5,341.7 37.2,332.5Z" style="fill:rgb(107,90,237);fill-rule:nonzero;"/>
    </g>
</svg>
