<svg width="19" height="22" viewBox="0 0 19 22" fill="none" xmlns="http://www.w3.org/2000/svg">
<g clip-path="url(#clip0_419_5581)">
<path d="M18.9993 16.2937C18.0466 16.2937 17.1095 16.2854 16.1723 16.2978C15.8942 16.2984 15.6172 16.3343 15.3479 16.4047C14.7857 16.5604 14.2894 16.8987 13.9352 17.368C13.581 17.8373 13.3884 18.4114 13.3869 19.0024C13.3796 19.9197 13.3869 20.837 13.3869 21.7543V22.0029H13.1516C10.9357 22.0029 8.71959 22.0029 6.50316 22.0029C4.92705 22.0029 3.75293 20.8188 3.75293 19.2245C3.75293 14.0727 3.75293 8.92139 3.75293 3.77065V3.55273H18.9993V16.2937ZM15.7866 6.66586H6.9787V7.99583H15.7866V6.66586ZM6.97625 11.2598H15.7809V9.93396H6.97625V11.2598ZM6.97625 14.5146H11.7683V13.1963H6.97788L6.97625 14.5146Z" fill="#f44336"/>
<path d="M2.417 19.2614C1.10316 19.1404 0.0409783 17.9952 0.0033934 16.6877C-0.00314311 16.4672 0.0033934 16.246 0.0033934 16.0248V0H15.2498V2.17595H2.4219L2.417 19.2614Z" fill="#f44336"/>
<path d="M18.9451 17.6543L14.7266 21.9317V21.7916C14.7266 20.8801 14.7266 19.9728 14.7266 19.063C14.7266 18.2343 15.2985 17.6543 16.1107 17.6543C17.0005 17.6543 17.891 17.6543 18.7808 17.6543H18.9451Z" fill="#f44336"/>
</g>
<defs>
<clipPath id="clip0_419_5581">
<rect width="19" height="22" fill="white"/>
</clipPath>
</defs>
</svg>
