<svg width="18" height="22" viewBox="0 0 18 22" fill="none" xmlns="http://www.w3.org/2000/svg">
<g clip-path="url(#clip0_419_1578)">
<path d="M15.5302 8.37661C14.9795 8.33185 14.4527 8.23457 13.9311 8.25695C11.7752 8.34992 10.2433 9.40955 9.32043 11.2697C8.56288 12.8002 8.64598 14.3462 9.45833 15.8525C9.49897 15.9191 9.52318 15.994 9.52905 16.0712C9.53347 16.9879 9.52905 17.9047 9.52905 18.8205C9.52536 18.8495 9.51975 18.8783 9.51225 18.9066H1.67244C0.632028 18.9066 0 18.2894 0 17.2711V1.63061C0 0.611441 0.629377 -0.00488281 1.66891 -0.00488281H13.8675C14.8955 -0.00488281 15.532 0.614027 15.5329 1.6134V8.37144L15.5302 8.37661ZM7.24402 3.43913H4.33404C4.24512 3.43621 4.15616 3.44314 4.06885 3.45979C3.90292 3.49886 3.7571 3.59509 3.65832 3.73067C3.55954 3.86626 3.51446 4.03206 3.5314 4.19749C3.5703 4.5573 3.87438 4.81208 4.281 4.81208C6.24338 4.81208 8.20576 4.81208 10.1681 4.81208C10.6181 4.81208 10.9354 4.5263 10.9372 4.12862C10.939 3.73094 10.6181 3.43999 10.1522 3.43999L7.24402 3.43913ZM7.23518 6.19365C6.26519 6.19365 5.29519 6.19365 4.3252 6.19365C3.85316 6.19365 3.53494 6.46825 3.52964 6.87454C3.52433 7.28083 3.84698 7.56746 4.31194 7.56746H10.1549C10.6207 7.56746 10.9416 7.28082 10.9381 6.87883C10.9345 6.47684 10.6145 6.19795 10.1425 6.19709C9.17429 6.19193 8.20518 6.18963 7.23518 6.1902V6.19365ZM5.99764 8.94386C5.43898 8.94386 4.88032 8.94386 4.32255 8.94386C3.8514 8.94386 3.53317 9.22019 3.52698 9.62648C3.5208 10.0328 3.84521 10.3151 4.31194 10.3151C5.43633 10.3151 6.56043 10.3151 7.68423 10.3151C8.14831 10.3151 8.47007 10.0259 8.46476 9.62045C8.45946 9.21502 8.14212 8.943 7.69042 8.94213C7.12911 8.93955 6.56337 8.94043 5.99764 8.94043V8.94386Z" fill="#f44336"/>
<path d="M14.1338 9.62697C15.164 9.63289 16.1496 10.0365 16.8745 10.7494C17.5994 11.4622 18.0042 12.4259 18.0002 13.4291C17.9935 14.4292 17.5807 15.3862 16.852 16.0911C16.1234 16.796 15.1379 17.1916 14.1108 17.1916C13.0804 17.1886 12.0932 16.7875 11.3662 16.0765C10.6391 15.3654 10.2315 14.4024 10.2329 13.3989C10.2371 12.3952 10.6503 11.4341 11.3818 10.7268C12.1132 10.0196 13.103 9.624 14.1338 9.62697ZM13.5663 13.5255C13.3895 13.4144 13.2366 13.3068 13.0731 13.213C12.9185 13.1185 12.7321 13.0868 12.5538 13.1246C12.3755 13.1624 12.2195 13.2668 12.1193 13.4153C12.0157 13.5622 11.9761 13.743 12.0093 13.9183C12.0424 14.0935 12.1455 14.2488 12.2961 14.3501C12.6561 14.598 13.023 14.8359 13.3966 15.0637C13.542 15.1606 13.7208 15.1976 13.8941 15.1664C14.0674 15.1353 14.2209 15.0386 14.3212 14.8976C14.8215 14.1909 15.313 13.4773 15.7859 12.7525C16.0246 12.3858 15.8257 11.921 15.4049 11.772C15.2585 11.72 15.0981 11.7185 14.9507 11.7679C14.8033 11.8172 14.6778 11.9144 14.5952 12.0432C14.2523 12.5252 13.9199 13.015 13.5663 13.5255Z" fill="#f44336"/>
<path d="M10.9406 17.5596C13.0621 18.9076 15.166 18.9093 17.2848 17.5656C17.2848 17.6353 17.2945 17.6964 17.2945 17.7567C17.2945 18.9102 17.2945 20.063 17.2945 21.2153C17.2945 21.8868 16.75 22.1975 16.1533 21.8678C15.5275 21.5235 14.9034 21.1746 14.2811 20.8211C14.2341 20.789 14.1781 20.7717 14.1207 20.7717C14.0633 20.7717 14.0072 20.789 13.9602 20.8211C13.3415 21.1749 12.713 21.5209 12.0871 21.867C11.4869 22.1975 10.9424 21.8911 10.938 21.2231C10.938 20.0702 10.938 18.9173 10.938 17.7644L10.9406 17.5596Z" fill="#f44336"/>
</g>
<defs>
<clipPath id="clip0_419_1578">
<rect width="18" height="22" fill="white"/>
</clipPath>
</defs>
</svg>
