<svg width="21" height="21" viewBox="0 0 21 21" fill="none" xmlns="http://www.w3.org/2000/svg">
<path d="M17.7383 20.333C17.8044 20.2399 17.8629 20.1416 17.9133 20.0391L17.7383 20.333Z" fill="white"/>
<path d="M17.5865 16.2969H9.39278L9.00082 16.9175C8.80863 17.2926 8.70074 17.7053 8.68471 18.1265C8.66868 18.5477 8.74489 18.9673 8.90801 19.356C9.07113 19.7447 9.31721 20.0931 9.62905 20.3767C9.94088 20.6603 10.3109 20.8724 10.7133 20.998H15.9347C17.2669 20.998 17.7382 20.3331 17.7382 20.3331L17.9132 20.0391C18.2048 19.4652 18.6574 18.091 17.5865 16.2969Z" fill="url(#paint0_linear_419_6152)"/>
<path d="M17.925 20.0391L19.1592 17.9814L18.4593 16.2969H17.603C18.6576 18.091 18.205 19.4652 17.925 20.0391Z" fill="white"/>
<path d="M16.719 7.32617L15.3191 9.69658C14.8743 10.4529 14.7027 11.339 14.833 12.2067C14.9634 13.0743 15.3879 13.8709 16.0354 14.463C16.6376 14.995 17.1581 15.6129 17.5799 16.2968C18.6508 18.091 18.1981 19.4652 17.9065 20.0298C17.8562 20.1323 17.7977 20.2306 17.7315 20.3237C25.258 15.2796 16.719 7.32617 16.719 7.32617Z" fill="url(#paint1_linear_419_6152)"/>
<path d="M7.99079 0.00195312H3.59528C2.2631 0.00195312 1.79414 0.669212 1.79414 0.669212L1.61683 0.960847C1.32519 1.53478 0.874916 2.90896 1.94346 4.69376H10.2632L10.4335 4.42313C10.707 3.98635 10.8587 3.48436 10.8727 2.96922C10.8868 2.45408 10.7628 1.94455 10.5136 1.49348C10.2644 1.04242 9.89903 0.666246 9.45542 0.403979C9.01182 0.141712 8.50612 0.00290294 7.99079 0.00195312Z" fill="url(#paint2_linear_419_6152)"/>
<path d="M9.00095 16.9175L9.39291 16.2969H5.72998V20.9957H10.7134C10.3114 20.87 9.94163 20.658 9.63003 20.3745C9.31843 20.091 9.0725 19.743 8.90941 19.3546C8.74632 18.9662 8.67001 18.5468 8.68582 18.1259C8.70164 17.7049 8.80918 17.2925 9.00095 16.9175Z" fill="white"/>
<path d="M15.2023 7.0435e-07H7.99072C8.50785 -0.000360383 9.01559 0.138119 9.46093 0.40098C9.90626 0.663841 10.2729 1.04144 10.5224 1.49435C10.772 1.94726 10.8954 2.45887 10.8798 2.97576C10.8641 3.49265 10.71 3.99586 10.4335 4.43284L10.2631 4.70348H15.2023V7.0435e-07Z" fill="white"/>
<path d="M9.001 16.9167L9.39296 16.2961L19.6585 0.00195383H7.99311C8.51024 0.00159274 9.01798 0.140072 9.46332 0.402933C9.90865 0.665794 10.2752 1.0434 10.5248 1.49631C10.7744 1.94922 10.8978 2.46083 10.8822 2.97772C10.8665 3.49461 10.7124 3.99781 10.4358 4.43479L10.2655 4.70543L0 20.9996H10.7111C10.3087 20.8738 9.93857 20.6615 9.62676 20.3776C9.31495 20.0937 9.06898 19.745 8.90606 19.3561C8.74315 18.9671 8.66724 18.5473 8.68364 18.1259C8.70004 17.7045 8.80835 17.2918 9.001 16.9167Z" fill="url(#paint3_linear_419_6152)"/>
<defs>
<linearGradient id="paint0_linear_419_6152" x1="8.63454" y1="18.665" x2="18.2001" y2="18.665" gradientUnits="userSpaceOnUse">
<stop stop-color="#AAD4FF"/>
<stop offset="1" stop-color="#286FEB"/>
</linearGradient>
<linearGradient id="paint1_linear_419_6152" x1="17.8117" y1="7.32617" x2="17.8117" y2="20.3237" gradientUnits="userSpaceOnUse">
<stop stop-color="#286FEB"/>
<stop offset="1" stop-color="#AAD4FF"/>
</linearGradient>
<linearGradient id="paint2_linear_419_6152" x1="10.9678" y1="2.33269" x2="1.16888" y2="2.33269" gradientUnits="userSpaceOnUse">
<stop stop-color="#286FEB"/>
<stop offset="1" stop-color="#AAD4FF"/>
</linearGradient>
<linearGradient id="paint3_linear_419_6152" x1="5.83502" y1="20.9973" x2="16.1005" y2="1.39946" gradientUnits="userSpaceOnUse">
<stop stop-color="#286FEB"/>
<stop offset="1" stop-color="#AAD4FF"/>
</linearGradient>
</defs>
</svg>
