<svg width="26" height="33" viewBox="0 0 26 33" fill="none" xmlns="http://www.w3.org/2000/svg">
<path d="M19.5079 8.23635C18.9629 8.09454 18.4661 7.99204 18.0211 7.86719L10.3999 21.4016C10.9847 21.417 11.5943 21.6787 12.0377 22.0297C12.8788 22.6956 13.0799 23.6482 13.2028 24.2327C13.296 24.6747 13.3042 25.0921 13.2595 25.6339L22.5332 9.16425C21.6177 8.78546 20.5748 8.51572 19.5079 8.23635Z" fill="#F2F7FC"/>
<path d="M16.7878 6.89188C16.4173 6.40035 15.9062 5.35528 16.2111 5.07095C16.2675 5.02352 16.3392 4.99677 16.4138 4.99533C16.4285 5.05469 16.5451 5.48686 16.9746 5.67818C17.3839 5.8608 17.8678 5.73149 18.1436 5.43544C18.5102 5.04486 18.4446 4.44482 18.2061 4.13062C18.0383 3.90943 17.8904 3.96955 17.4267 3.56914C17.0527 3.24624 17.0119 3.08933 17.0061 2.99254C17.0002 2.89575 17.0228 2.80349 17.2084 2.50706C17.3664 2.2567 17.5436 2.01832 17.7385 1.79397C17.5399 1.87945 17.3312 1.94053 17.1171 1.97583C16.8646 2.01712 16.6073 2.02234 16.3532 1.99133C16.2424 1.73592 16.2314 1.44991 16.3221 1.18712C16.4876 0.722812 16.9101 0.544348 16.9765 0.519393C16.5817 0.459322 16.1778 0.539867 15.839 0.746253C15.5906 0.903418 15.3912 1.12374 15.2623 1.38335C14.609 1.15422 14.11 1.15876 13.8284 1.18636C13.5802 1.21018 13.4233 1.25971 13.3142 1.38335C13.127 1.59546 13.1884 1.90248 13.2051 1.97507L11.5995 2.32406C11.5851 2.35128 11.429 2.65982 11.5995 2.96154C11.683 3.10268 11.8157 3.21001 11.9735 3.26402C11.8049 3.41855 11.6164 3.55111 11.4127 3.65837C11.1594 3.79125 10.8857 3.88343 10.6022 3.93136C10.7867 4.53632 11.2849 4.97075 11.8648 5.03919C12.4143 5.10385 12.8283 4.81233 12.9301 4.73671C12.5697 5.81203 12.5941 6.63817 12.6707 7.17167C12.8019 8.08591 13.1215 8.38613 14.0863 10.9391C14.3581 11.6605 14.5748 12.2745 14.3461 12.9607C14.1907 13.43 13.8847 13.7548 13.6618 13.9483C13.2882 13.1483 12.4737 11.7028 10.8538 10.5485C10.1804 10.0687 7.4319 8.11049 4.34162 9.12417C4.18627 9.17484 1.5764 10.074 0.707613 12.4322C0.324678 13.4723 0.612462 13.895 0.896362 16.7969C1.0688 18.5585 1.28707 20.8891 1.03812 23.2749C0.873651 24.8174 0.525266 26.336 0 27.8C0.916947 27.0839 1.41911 26.3727 1.70185 25.8838C2.65647 24.2323 2.31703 23.0239 3.20368 20.8929C3.50054 20.1793 3.87624 19.4993 4.32414 18.8648C3.9746 19.996 3.58623 21.696 3.70274 23.6005C3.78042 24.8247 4.03364 25.6705 4.1016 25.888C4.30603 26.5421 4.58507 27.1719 4.9335 27.7656C4.66125 26.6822 4.63236 25.5544 4.84883 24.4591C5.25856 22.4049 6.42484 21.0766 6.95614 20.5394C6.76739 20.9303 6.23998 22.1542 6.59845 23.6715C6.79221 24.4788 7.19735 25.2235 7.77444 25.8331C7.68705 23.3399 8.9784 21.485 10.3995 21.2721C10.5179 21.2546 10.6378 21.2475 10.7575 21.2509L18.6333 7.97097C17.8655 7.76604 17.2457 7.50024 16.7878 6.89188Z" fill="#286FEB"/>
<path d="M12.1418 30.9186C11.9963 31.3614 11.7917 31.7826 11.5335 32.1707C11.3312 32.4717 11.0964 32.7496 10.8335 32.9993C11.3347 32.8804 11.8473 32.8157 12.3623 32.8062C12.8784 32.7965 13.3941 32.8428 13.9002 32.9442C13.6592 32.8731 13.4379 32.747 13.2539 32.5759C13.1444 32.4725 12.9912 32.3235 13.0052 32.1433C13.0103 32.0874 13.0293 32.0335 13.0604 31.9867C16.1176 27.201 16.8624 26.4727 16.8624 26.4727C16.8624 26.4727 19.4802 23.9222 22.9248 20.0069C24.9483 17.7076 25.5779 16.7725 25.8444 15.4201C25.9357 14.9586 26.4189 12.5076 25.0357 10.7678C24.4586 10.0418 23.6426 9.54803 22.6956 9.16602L13.3136 25.4122C13.2824 25.7775 13.2261 26.2006 13.1547 26.7278C13.1547 26.7289 12.8722 28.8131 12.1418 30.9186Z" fill="#EC3B00"/>
</svg>
