<svg width="73" height="91" viewBox="0 0 73 91" fill="none" xmlns="http://www.w3.org/2000/svg">
<g clip-path="url(#clip0_224_274)">
<path d="M15.9411 37.4656C13.527 40.8709 11.3282 44.3823 9.50357 48.132C7.5039 52.2584 5.90055 56.523 5.06166 61.0439C4.34749 64.9039 4.15637 68.7638 5.38152 72.5656C7.0412 77.7196 10.94 80.5779 16.2228 80.9786C20.5259 81.3071 24.5775 80.2414 28.4944 78.6089C34.3667 76.1612 39.559 72.6478 44.3308 68.4814C52.6091 61.2402 59.3243 52.7932 64.0861 42.8659C66.0676 38.7296 67.5925 34.435 68.3329 29.894C68.9203 26.2884 69.037 22.6829 67.8762 19.1595C66.3614 14.5644 63.2331 11.7481 58.3848 10.9088C58.208 10.8793 58.0347 10.8316 57.8678 10.7665C61.5251 10.7665 64.9089 11.6158 67.7454 14.0316C70.1072 16.0346 71.5174 18.6246 72.2819 21.5892C73.0242 24.4656 73.1289 27.3861 72.8412 30.3246C72.121 37.712 69.5641 44.5225 66.0677 50.9964C59.2096 63.696 49.8913 74.2622 37.9757 82.5069C33.5781 85.5496 28.8666 88.0114 23.7306 89.6018C20.4736 90.6034 17.1462 91.1663 13.7222 90.9519C7.23634 90.5513 2.58922 86.7695 0.800788 80.4698C-0.0401189 77.5092 -0.162837 74.4846 0.138924 71.4559C0.965749 63.1371 4.1101 55.6075 8.18588 48.4085C10.3385 44.6507 12.7772 41.0627 15.4805 37.676C15.5428 37.5978 15.6132 37.5277 15.6816 37.4516L15.9411 37.4656Z" fill="url(#paint0_linear_224_274)"/>
<path fill-rule="evenodd" clip-rule="evenodd" d="M24.4302 57.682C24.4666 57.7267 24.503 57.7713 24.5333 57.817C24.6463 57.6001 24.7573 57.382 24.8682 57.1642C25.1349 56.64 25.4009 56.1172 25.6928 55.6154C25.4125 56.1074 25.1559 56.6126 24.8993 57.1176C24.7807 57.3512 24.662 57.5847 24.541 57.817C24.9075 57.6836 25.273 57.5465 25.6384 57.4095C26.4804 57.0937 27.3225 56.7779 28.1782 56.507C30.2564 55.854 32.3566 55.7698 34.4609 56.4408C36.1045 56.9656 37.5892 57.7989 39.0316 58.7203C39.3535 58.927 39.6735 59.1377 40.0027 59.3544C40.1424 59.4464 40.2838 59.5394 40.4277 59.6338C40.4635 59.5736 40.4978 59.5177 40.5304 59.4645C40.6042 59.3442 40.6697 59.2375 40.7255 59.125C41.1419 58.2885 41.564 57.4546 41.9862 56.6205C42.9875 54.6422 43.989 52.6634 44.9159 50.65C46.4147 47.409 47.7142 44.0858 48.4264 40.5724C48.7382 39.0341 48.9796 37.4817 48.5773 35.9153C48.3882 35.1661 48.0763 34.4831 47.4004 34.0624C47.0564 33.8501 47.0604 33.6738 47.1992 33.3413C47.6385 32.2888 48.081 31.2373 48.5236 30.1856C49.7167 27.3506 50.9101 24.5147 52.0415 21.6553C54.2303 16.1248 56.3144 10.5503 57.5798 4.71928C57.9158 3.1729 58.2195 1.61852 58.0284 0.0160522C58.0259 0.0187045 58.0235 0.0213626 58.021 0.0240266C57.9802 0.0235309 57.9371 0.0179492 57.8942 0.012396C57.805 0.000853932 57.7168 -0.0105649 57.6526 0.0240622C57.1683 0.283411 56.6983 0.568254 56.2444 0.877377C53.8363 2.60203 51.7663 4.69725 49.7706 6.85857C44.6769 12.3791 40.0579 18.2862 35.5275 24.2634L34.0026 26.2805C32.5702 25.5734 31.4075 25.8218 29.9791 26.607C28.1505 27.6105 26.6638 29.0287 25.2556 30.537C21.9302 34.1125 19.1379 38.0866 16.4723 42.1549C16.0842 42.7478 15.7131 43.3514 15.3357 43.965C15.1458 44.2738 14.9543 44.5852 14.7583 44.8991C14.8335 44.9365 14.903 44.97 14.9684 45.0015C15.0884 45.0593 15.1946 45.1105 15.2975 45.1675C15.7017 45.3973 16.1099 45.6214 16.5183 45.8456C17.4449 46.3543 18.372 46.8634 19.2545 47.439C20.3574 48.1459 21.308 49.064 22.0513 50.14C22.7945 51.216 23.3154 52.4284 23.5838 53.7067C23.7484 54.449 23.8755 55.2004 24.0026 55.952C24.0837 56.4314 24.1648 56.9109 24.2557 57.3883C24.2762 57.493 24.3533 57.5876 24.4302 57.682ZM57.8541 0.226462C57.8382 0.24752 57.8227 0.268862 57.8075 0.290475C57.6228 0.607883 57.4382 0.925305 57.2535 1.24274C57.44 0.923284 57.6265 0.603856 57.8132 0.284458C57.8265 0.264907 57.8402 0.245574 57.8541 0.226462ZM53.1401 8.31567C52.9524 8.63853 52.7647 8.96142 52.577 9.28432C52.1497 10.0241 51.7308 10.7696 51.312 11.5149C51.1197 11.8573 50.9274 12.1996 50.7342 12.5413C50.5385 12.6097 50.3536 12.7055 50.185 12.8258C49.9977 13.0065 49.8086 13.1863 49.6195 13.3661C48.9597 13.9935 48.2987 14.6219 47.7046 15.2976C45.8618 17.4068 44.2645 19.6863 43.1761 22.2843C42.6088 23.6344 42.1703 25.0105 42.5344 26.5048C42.5155 26.5467 42.498 26.5896 42.4805 26.6324C42.4516 26.7035 42.4227 26.7744 42.3872 26.8406C42.4262 26.7704 42.4572 26.6945 42.4882 26.6183C42.5057 26.5755 42.5231 26.5327 42.5421 26.4908C43.7934 26.2103 44.6725 25.3811 45.4269 24.4376C48.2292 20.9382 49.9533 16.9401 50.7399 12.5353C50.9331 12.1935 51.1255 11.851 51.3179 11.5085C51.7366 10.7634 52.1554 10.018 52.5826 9.2783C52.7684 8.95739 52.9542 8.63651 53.1401 8.31567ZM42.258 27.065C40.5312 30.0516 38.8043 33.0371 37.0775 36.0213C38.8104 33.0371 40.5373 30.0516 42.258 27.065Z" fill="url(#paint1_linear_224_274)"/>
<path d="M16.3153 71.9487C16.3153 70.3282 16.2489 68.7438 16.3314 67.1714C16.432 65.2604 16.6613 63.3655 17.293 61.5307C17.631 60.5512 18.0555 59.6157 18.83 58.8746C19.2058 58.5008 19.6696 58.2268 20.1792 58.0774C20.6887 57.928 21.2277 57.908 21.747 58.0193C23.1955 58.2748 24.5159 59.007 25.4969 60.0985C25.9007 60.5154 26.1789 61.0369 26.2998 61.6034C26.4207 62.17 26.3795 62.759 26.1809 63.3034C25.682 64.8578 24.6238 66.0056 23.4429 67.0592C21.3265 68.9461 18.9607 70.4865 16.4984 71.8826C16.4391 71.9093 16.3779 71.9314 16.3153 71.9487Z" fill="url(#paint2_linear_224_274)"/>
<path d="M15.9412 37.4656L15.6797 37.4516C16.1786 36.8106 16.6782 36.169 17.1784 35.5267L17.3333 35.6448L15.9412 37.4656Z" fill="#EF815A"/>
</g>
<defs>
<linearGradient id="paint0_linear_224_274" x1="36.4891" y1="90.9972" x2="36.4891" y2="10.7665" gradientUnits="userSpaceOnUse">
<stop stop-color="#AAD4FF"/>
<stop offset="0.5" stop-color="#286FEB"/>
<stop offset="1" stop-color="#286FEB"/>
</linearGradient>
<linearGradient id="paint1_linear_224_274" x1="36.423" y1="59.6338" x2="36.423" y2="0.000915527" gradientUnits="userSpaceOnUse">
<stop stop-color="#AAD4FF"/>
<stop offset="0.5" stop-color="#286FEB"/>
<stop offset="1" stop-color="#286FEB"/>
</linearGradient>
<linearGradient id="paint2_linear_224_274" x1="21.3289" y1="71.9487" x2="21.3289" y2="57.9484" gradientUnits="userSpaceOnUse">
<stop stop-color="#AAD4FF"/>
<stop offset="0.5" stop-color="#286FEB"/>
<stop offset="1" stop-color="#286FEB"/>
</linearGradient>
<clipPath id="clip0_224_274">
<rect width="73" height="91" fill="white"/>
</clipPath>
</defs>
</svg>
