<svg width="8" height="16" viewBox="0 0 8 16" fill="none" xmlns="http://www.w3.org/2000/svg">
<path d="M3.5986 9.87672H3.44791C2.45612 9.87672 1.46487 9.87672 0.473624 9.87672C0.296749 9.87672 0.147661 9.82726 0.0546814 9.63883C-0.0382984 9.45041 0.00124444 9.26323 0.0990335 9.08294C1.67399 6.15492 3.2477 3.22627 4.82016 0.296998C4.83192 0.275088 4.84314 0.252552 4.85543 0.234398C4.9778 0.0246874 5.1707 -0.0504327 5.35453 0.0390857C5.44577 0.083726 5.51962 0.16645 5.56177 0.271231C5.60393 0.376011 5.61138 0.495386 5.5827 0.60624C5.34651 1.71635 5.10872 2.82584 4.86932 3.9347C4.71934 4.63582 4.56901 5.33673 4.41832 6.03744C4.41297 6.06248 4.40923 6.08752 4.40229 6.12759H4.55298C5.54423 6.12759 6.53548 6.12759 7.52673 6.12759C7.70414 6.12759 7.85322 6.17766 7.9462 6.36546C8.03918 6.55326 7.99964 6.74107 7.90185 6.92198C6.32476 9.85167 4.74891 12.7837 3.17431 15.7179C3.07706 15.9001 2.95202 16.0172 2.76178 15.9984C2.51223 15.974 2.35353 15.6998 2.41765 15.3974C2.66381 14.2418 2.91158 13.0871 3.16095 11.9331L3.58257 9.96623C3.58845 9.94119 3.59165 9.91616 3.5986 9.87672Z" fill="#0B2758"/>
</svg>
