<svg width="92" height="76" viewBox="0 0 92 76" fill="none" xmlns="http://www.w3.org/2000/svg">
<g clip-path="url(#clip0_419_6531)">
<path d="M19.6898 52.3725C19.0439 49.9398 18.4123 47.6681 17.849 45.3782C17.6185 44.4349 17.4696 43.4728 17.404 42.503C17.3573 41.7933 17.1349 41.5849 16.4423 41.5922C12.9807 41.6264 9.51184 41.6264 6.03585 41.5922C3.0144 41.5666 0.724977 39.7265 0.122121 36.8952C-0.0629879 36.0462 -0.060163 35.1658 0.130389 34.3181C0.320942 33.4703 0.694436 32.6766 1.22371 31.9945C1.75298 31.3123 2.42472 30.759 3.19009 30.3748C3.95546 29.9905 4.79522 29.7849 5.6483 29.773C9.44127 29.7291 13.2342 29.773 17.0236 29.773H17.6911C19.0762 26.1149 20.4111 22.5922 21.7568 19.0512C21.6886 19.0512 21.3979 19.0182 21.136 19.0146C18.1181 19.0146 15.1038 19.0548 12.0895 18.9926C10.6855 18.9571 9.34201 18.4025 8.30944 17.432C7.27688 16.4615 6.62569 15.1414 6.47723 13.7177C6.33441 12.359 6.66037 10.992 7.39908 9.85171C8.13779 8.71146 9.24309 7.86921 10.525 7.46968C11.212 7.26906 11.924 7.17169 12.6386 7.18068C19.0296 7.15873 25.417 7.18074 31.8079 7.14782C32.3307 7.13263 32.8389 6.96921 33.2756 6.67591C41.2132 1.24002 49.9259 -0.940178 59.3994 0.373069C67.0599 1.38931 74.2182 4.81768 79.8758 10.1798C85.5334 15.542 89.4082 22.5705 90.9596 30.2851C95.115 50.4996 82.3474 70.7762 62.5715 75.0378C49.2943 77.9021 37.7288 74.3391 27.9289 64.7733C27.5465 64.4228 27.0573 64.2174 26.5437 64.1917C22.9015 64.1405 19.2592 64.2246 15.617 64.1404C14.6375 64.1319 13.6766 63.868 12.8254 63.374C11.9743 62.88 11.2612 62.1723 10.7541 61.3181C10.2471 60.4639 9.96276 59.4915 9.9283 58.4937C9.89384 57.4958 10.1104 56.5057 10.5573 55.6172C10.9876 54.6705 11.6711 53.8666 12.5292 53.2979C13.3873 52.7291 14.3854 52.4185 15.4088 52.4018C16.837 52.3249 18.2652 52.3725 19.6898 52.3725ZM54.4258 9.10849C46.9051 9.11235 39.6931 12.1572 34.3718 17.5749C29.0506 22.9926 26.0546 30.3406 26.0413 38.0072C26.0575 45.6729 29.0543 53.0194 34.375 58.4365C39.6956 63.8535 46.906 66.8992 54.4258 66.906C61.9443 66.906 69.1549 63.8614 74.4713 58.4419C79.7877 53.0223 82.7744 45.6716 82.7744 38.0072C82.7744 30.3428 79.7877 22.9923 74.4713 17.5728C69.1549 12.1532 61.9443 9.10849 54.4258 9.10849Z" fill="url(#paint0_linear_419_6531)"/>
<path d="M31.4094 37.9927C31.4265 31.7743 33.863 25.817 38.184 21.4278C42.5051 17.0386 48.3579 14.5762 54.4579 14.5811C57.479 14.5811 60.4703 15.1888 63.2607 16.3692C66.051 17.5496 68.5855 19.2796 70.7189 21.4601C72.8523 23.6407 74.5426 26.2291 75.6932 29.0767C76.8438 31.9243 77.4319 34.9753 77.4238 38.055C77.4134 44.2572 74.9891 50.2017 70.6833 54.5835C66.3775 58.9653 60.542 61.4263 54.4579 61.4263C48.3545 61.4302 42.499 58.9645 38.1775 54.5708C33.856 50.1771 31.4218 44.2146 31.4094 37.9927ZM51.8204 21.5973V40.6925H65.1873V35.2491H57.1062V21.5973H51.8204Z" fill="url(#paint1_linear_419_6531)"/>
</g>
<defs>
<linearGradient id="paint0_linear_419_6531" x1="45.8648" y1="75.9999" x2="45.8648" y2="0.0012207" gradientUnits="userSpaceOnUse">
<stop stop-color="#AAD4FF"/>
<stop offset="0.5" stop-color="#f44336"/>
<stop offset="1" stop-color="#f44336"/>
</linearGradient>
<linearGradient id="paint1_linear_419_6531" x1="54.4167" y1="61.4263" x2="54.4167" y2="14.5811" gradientUnits="userSpaceOnUse">
<stop stop-color="#AAD4FF"/>
<stop offset="0.5" stop-color="#f44336"/>
<stop offset="1" stop-color="#f44336"/>
</linearGradient>
<clipPath id="clip0_419_6531">
<rect width="91.7561" height="76" fill="white"/>
</clipPath>
</defs>
</svg>
