<svg width="20" height="22" viewBox="0 0 20 22" fill="none" xmlns="http://www.w3.org/2000/svg">
<g clip-path="url(#clip0_419_5460)">
<path d="M5.92969 15.2148C5.92968 13.4153 6.67018 11.6892 7.98881 10.4151C9.30744 9.14097 11.0966 8.42275 12.9639 8.41797C14.8307 8.42093 16.62 9.13757 17.9391 10.4106C19.2583 11.6835 19.9994 13.4089 19.9999 15.2079C19.9977 17.0034 19.2576 18.7249 17.9415 19.9958C16.6254 21.2667 14.8404 21.9835 12.9773 21.9891C11.1112 21.9891 9.32134 21.276 8.00018 20.006C6.67901 18.7361 5.93442 17.013 5.92969 15.2148ZM11.2694 17.6659C11.4178 17.603 11.5585 17.5245 11.689 17.4319C11.9256 17.2374 12.1354 17.0112 12.355 16.7986C13.3115 15.8809 14.2676 14.9601 15.2235 14.0361C15.4181 13.8502 15.5494 13.6429 15.5074 13.3701C15.4938 13.2371 15.4395 13.111 15.3512 13.0079C15.263 12.9048 15.1448 12.8293 15.0119 12.7911C14.7057 12.6948 14.4459 12.7782 14.2218 12.9959C13.091 14.0903 11.9568 15.1838 10.8194 16.2764C10.7378 16.3495 10.6603 16.4267 10.5873 16.5078C10.4932 16.611 10.4342 16.7394 10.4182 16.8759C10.4022 17.0123 10.4301 17.1503 10.498 17.271C10.6284 17.5317 10.856 17.6573 11.2694 17.6659ZM15.4494 16.9552C15.4499 16.8321 15.4249 16.71 15.376 16.5962C15.3271 16.4824 15.2552 16.3791 15.1645 16.2923C15.0737 16.2055 14.966 16.137 14.8476 16.0907C14.7291 16.0444 14.6023 16.0212 14.4745 16.0226C14.3464 16.0225 14.2195 16.0468 14.1012 16.0941C13.9829 16.1414 13.8755 16.2108 13.7851 16.2983C13.6948 16.3858 13.6233 16.4896 13.5747 16.6038C13.5262 16.7181 13.5015 16.8404 13.5022 16.9638C13.5036 17.2139 13.6077 17.4533 13.7917 17.6297C13.9758 17.8061 14.2247 17.905 14.4843 17.905C14.7429 17.9023 14.9899 17.8008 15.1708 17.6227C15.3518 17.4446 15.452 17.2045 15.4494 16.9552ZM11.4488 14.3966C11.5769 14.3979 11.7039 14.3748 11.8225 14.3284C11.9412 14.2821 12.0492 14.2136 12.1401 14.1267C12.231 14.0399 12.3032 13.9365 12.3523 13.8226C12.4015 13.7086 12.4267 13.5864 12.4264 13.4631C12.4279 13.2137 12.3266 12.974 12.1448 12.7966C11.963 12.6192 11.7156 12.5185 11.4569 12.5167C11.3288 12.5163 11.2019 12.5404 11.0834 12.5874C10.965 12.6344 10.8574 12.7035 10.7667 12.7908C10.6761 12.878 10.6042 12.9815 10.5551 13.0956C10.5061 13.2096 10.4809 13.3319 10.4811 13.4553C10.4792 13.5787 10.5028 13.7012 10.5507 13.8157C10.5985 13.9301 10.6696 14.0342 10.7597 14.1219C10.8499 14.2096 10.9572 14.279 11.0756 14.3262C11.1939 14.3733 11.3208 14.3973 11.4488 14.3966Z" fill="#286FEB"/>
<path d="M6.17445 6.26421C5.71467 5.3574 5.86912 4.23206 6.9467 3.51109C6.91902 3.45689 6.89313 3.39925 6.86189 3.34419C6.44526 2.61002 6.02863 1.87643 5.612 1.14341C5.27006 0.541163 5.59771 0.00086035 6.30479 0C7.83382 0 9.36345 0 10.8937 0C11.5856 0 11.9186 0.542872 11.5865 1.13135C11.1401 1.92287 10.6937 2.71094 10.2375 3.50676C11.2499 4.22946 11.5124 5.14662 11.0151 6.27282C11.2883 6.4122 11.4686 6.61694 11.4124 6.93871C11.3615 7.22607 11.1606 7.36889 10.8767 7.44202C9.81436 7.69486 8.81731 8.15551 7.9475 8.79535C6.05482 10.2072 4.96027 12.0647 4.70226 14.3558C4.41657 16.8869 5.23792 19.0645 7.09044 20.879C7.31006 21.094 7.44755 21.322 7.31631 21.6257C7.22257 21.8408 7.04848 21.9845 6.80475 21.9837C5.58789 21.9837 4.36389 22.0396 3.15597 21.9329C1.16775 21.7608 -0.308008 19.7992 0.0544597 17.9056C0.469601 15.7409 0.850816 13.5677 1.36238 11.4246C1.95161 8.95624 3.56575 7.28286 6.00482 6.34852C6.05303 6.33046 6.10035 6.31067 6.14766 6.29089C6.14945 6.28744 6.15659 6.28056 6.17445 6.26421ZM8.58495 5.89083C8.77779 5.89083 8.97063 5.89599 9.16257 5.89083C9.3198 5.88994 9.47089 5.83196 9.58573 5.72847C9.70057 5.62498 9.77071 5.48356 9.78216 5.33244C9.80805 4.99433 9.6036 4.7018 9.25721 4.67857C8.81436 4.64803 8.36982 4.64803 7.92697 4.67857C7.59218 4.7018 7.38684 4.98829 7.40469 5.31522C7.41178 5.46648 7.47773 5.60961 7.58941 5.71612C7.70109 5.82262 7.85029 5.8847 8.00732 5.88995C8.20284 5.89683 8.39389 5.89083 8.58673 5.89083H8.58495Z" fill="#286FEB"/>
</g>
<defs>
<clipPath id="clip0_419_5460">
<rect width="20" height="22" fill="white"/>
</clipPath>
</defs>
</svg>
