<svg width="23" height="18" viewBox="0 0 23 18" fill="none" xmlns="http://www.w3.org/2000/svg">
<path d="M0 15.9164C2.54855 16.1317 4.82469 15.5664 6.90383 14.0859C5.5834 14.0137 4.5185 13.5475 3.64834 12.6861C3.13344 12.1878 2.75425 11.5763 2.54405 10.9052C3.21795 11.0024 3.9048 10.9801 4.57028 10.8395C3.50718 10.5929 2.56469 10.0049 1.90016 9.17377C1.24448 8.36274 0.891753 7.36498 0.898295 6.33976C1.26864 6.47436 1.58384 6.61219 1.91141 6.70263C2.23842 6.78261 2.57154 6.8377 2.90765 6.86737C1.79772 5.96613 1.07278 4.87216 0.936571 3.47346C0.837511 2.45055 1.22137 1.39211 1.62211 0.853736C4.15378 3.68989 7.33271 5.3007 11.2602 5.54836C11.2298 5.21887 11.1848 4.93568 11.1814 4.6525C11.1522 2.34288 12.8429 0.401501 15.2271 0.0580179C16.7333 -0.157332 18.0684 0.255064 19.1873 1.24998C19.251 1.31751 19.3341 1.3655 19.4263 1.38792C19.5184 1.41034 19.6154 1.40617 19.7051 1.37596C20.56 1.16837 21.3846 0.860221 22.1602 0.458565C22.2165 0.428416 22.2728 0.40581 22.3381 0.376738C22.3809 0.903268 21.6503 1.88418 20.6012 2.79619C20.7925 2.76496 20.985 2.73912 21.1741 2.70143C21.3846 2.65836 21.594 2.60883 21.8 2.55176C22.006 2.4947 22.1929 2.43117 22.3865 2.36549C22.5862 2.2905 22.7938 2.23635 23.0056 2.20398C22.9561 2.28258 22.9111 2.36441 22.857 2.43871C22.3055 3.18887 21.6338 3.85129 20.8668 4.40162C20.7059 4.51898 20.6766 4.63742 20.671 4.83231C20.664 5.5666 20.614 6.29994 20.5212 7.02888C20.242 8.86359 19.5508 10.6187 18.495 12.1736C16.4969 15.1357 13.712 17.019 10.0839 17.7339C8.91663 17.9633 7.72334 18.048 6.53347 17.9859C4.28518 17.8801 2.10195 17.2291 0.189114 16.094C0.150201 16.0701 0.112626 16.0442 0.0765458 16.0165C0.0480275 15.9853 0.0224152 15.9518 0 15.9164Z" fill="#405986"/>
</svg>
