<svg width="23" height="18" viewBox="0 0 23 18" fill="none" xmlns="http://www.w3.org/2000/svg">
<path d="M0 15.9164C2.54855 16.1318 4.82469 15.5665 6.90383 14.086C5.5834 14.0138 4.5185 13.5476 3.64834 12.6862C3.13344 12.1879 2.75425 11.5764 2.54405 10.9052C3.21795 11.0024 3.9048 10.9802 4.57028 10.8396C3.50718 10.5929 2.56469 10.005 1.90016 9.17383C1.24448 8.3628 0.891753 7.36504 0.898295 6.33982C1.26864 6.47442 1.58384 6.61225 1.91141 6.70269C2.23842 6.78267 2.57154 6.83776 2.90765 6.86743C1.79772 5.96619 1.07278 4.87222 0.936571 3.47352C0.837511 2.45061 1.22137 1.39217 1.62211 0.853797C4.15378 3.68995 7.33271 5.30076 11.2602 5.54842C11.2298 5.21893 11.1848 4.93575 11.1814 4.65256C11.1522 2.34294 12.8429 0.401562 15.2271 0.058079C16.7333 -0.157271 18.0684 0.255125 19.1873 1.25004C19.251 1.31757 19.3341 1.36556 19.4263 1.38798C19.5184 1.4104 19.6154 1.40623 19.7051 1.37602C20.56 1.16843 21.3846 0.860282 22.1602 0.458626C22.2165 0.428477 22.2728 0.405871 22.3381 0.376799C22.3809 0.903329 21.6503 1.88424 20.6012 2.79625C20.7925 2.76502 20.985 2.73918 21.1741 2.70149C21.3846 2.65842 21.594 2.60889 21.8 2.55182C22.006 2.49476 22.1929 2.43123 22.3865 2.36555C22.5862 2.29057 22.7938 2.23641 23.0056 2.20404C22.9561 2.28264 22.9111 2.36447 22.857 2.43877C22.3055 3.18893 21.6338 3.85135 20.8668 4.40168C20.7059 4.51904 20.6766 4.63748 20.671 4.83238C20.664 5.56666 20.614 6.3 20.5212 7.02894C20.242 8.86365 19.5508 10.6188 18.495 12.1736C16.4969 15.1358 13.712 17.019 10.0839 17.734C8.91663 17.9634 7.72334 18.0481 6.53347 17.9859C4.28518 17.8802 2.10195 17.2291 0.189114 16.0941C0.150201 16.0701 0.112626 16.0443 0.0765458 16.0166C0.0480275 15.9854 0.0224152 15.9519 0 15.9164Z" fill="white"/>
</svg>
